<svg width="22" height="19" viewBox="0 0 22 19" fill="none" xmlns="http://www.w3.org/2000/svg">
<path d="M20.5554 2.55192C19.3269 1.01143 17.6004 0.117432 15.9699 0.117432C13.8174 0.117432 12.9069 1.14793 11.4114 1.14793C9.86942 1.14793 8.69792 0.120432 6.83643 0.120432C5.00794 0.120432 3.06095 1.23792 1.82646 3.14891C0.0909721 5.8399 0.38797 10.8994 3.20045 15.2088C4.20695 16.7508 5.55094 18.4848 7.30893 18.4998C8.87342 18.5148 9.31442 17.4963 11.4339 17.4858C13.5534 17.4738 13.9554 18.5133 15.5169 18.4968C17.2764 18.4833 18.6939 16.5618 19.7004 15.0198C20.4219 13.9144 20.6904 13.3579 21.2498 12.1099C17.1804 10.5604 16.5279 4.7734 20.5554 2.55192Z" fill="white"/>
</svg>
