<svg width="480" height="461" viewBox="0 0 480 461" fill="none" xmlns="http://www.w3.org/2000/svg">
<rect width="480" height="460" transform="translate(0 0.5)" fill="white"/>
<path d="M192.452 118.168C188.788 114.465 185.123 110.762 181.482 107.036C180.667 106.208 179.401 107.496 180.215 108.324C183.879 112.027 187.544 115.73 191.186 119.456C192 120.284 193.267 118.996 192.452 118.168Z" fill="#F674B4"/>
<path d="M265.335 97.744C263.186 100.274 261.037 102.781 258.888 105.311C258.119 106.208 259.431 107.496 260.177 106.599C262.326 104.069 264.475 101.562 266.624 99.032C267.393 98.158 266.081 96.847 265.335 97.744Z" fill="#7BAEED"/>
<path d="M284.878 111.245C279.54 113.706 274.224 116.19 268.886 118.651C267.823 119.157 268.75 120.721 269.813 120.238C275.152 117.777 280.468 115.293 285.806 112.832C286.892 112.326 285.964 110.762 284.878 111.245Z" fill="#F674B4"/>
<path d="M272.347 250.717C257.304 252.856 258.503 275.695 275.129 275.58C293.994 275.442 290.941 248.049 272.347 250.717Z" fill="#FFCB56"/>
<path d="M183.336 264.356L185.983 272.383L193.561 266.242L183.336 264.356Z" fill="#F674B4"/>
<path d="M64.2639 178.727L72.0679 198.484L84.803 182.292L64.2639 178.727Z" fill="#7BAEED"/>
<path d="M377.372 138.753L359.842 161.178L381.534 180.889L403.024 161.178L377.372 138.753Z" fill="#F674B4"/>
<path d="M366.899 155.566H355.702L353.915 168.952L364.434 172.494L366.899 155.566Z" fill="#FFCB56"/>
<path d="M87.2008 147.171C86.7031 150.713 86.2055 154.232 85.7078 157.774C85.5495 158.924 87.2686 159.43 87.4496 158.257C87.9472 154.715 88.4449 151.196 88.9425 147.654C89.1009 146.504 87.3591 145.998 87.2008 147.171Z" fill="#FFCB56"/>
<path d="M371.061 128.794C370.88 127.644 369.139 128.127 369.32 129.277C369.568 130.795 369.817 132.313 370.066 133.831C370.247 134.981 371.989 134.498 371.808 133.348C371.559 131.83 371.31 130.312 371.061 128.794Z" fill="#7BAEED"/>
<path d="M408.204 173.575C405.467 173.828 402.73 174.081 400.015 174.334C398.861 174.449 398.861 176.266 400.015 176.151C402.752 175.898 405.489 175.645 408.204 175.392C409.335 175.3 409.357 173.483 408.204 173.575Z" fill="#7BAEED"/>
<path d="M75.2573 163.041C73.7644 162.029 72.2714 161.017 70.7785 160.028C69.8058 159.384 68.901 160.948 69.8737 161.615C71.3666 162.627 72.8596 163.639 74.3525 164.628C75.3252 165.272 76.23 163.685 75.2573 163.041Z" fill="#FFCB56"/>
<path d="M165.15 122.032C140.268 128.886 117.534 142.019 98.9859 160.235C98.1489 161.063 99.4156 162.351 100.253 161.523C118.598 143.537 141.037 130.588 165.625 123.803C166.733 123.481 166.258 121.733 165.15 122.032Z" fill="#7BAEED"/>
<path d="M343.352 130.45C333.761 122.193 322.631 116.42 310.394 113.43C309.263 113.154 308.788 114.925 309.919 115.201C321.84 118.122 332.72 123.688 342.062 131.738C342.944 132.497 344.234 131.209 343.352 130.45Z" fill="#7BAEED"/>
<path d="M305.757 357.299C305.282 357.299 304.875 356.908 304.852 356.402L301.572 239.424C301.549 238.918 301.957 238.504 302.454 238.481C302.929 238.481 303.359 238.872 303.382 239.378L306.662 356.356C306.684 356.862 306.277 357.276 305.779 357.299C305.757 357.299 305.757 357.299 305.757 357.299Z" fill="#000200"/>
<path d="M160.943 361.692C160.445 361.692 160.038 361.278 160.038 360.772V343.131C160.038 342.625 160.445 342.211 160.943 342.211C161.44 342.211 161.847 342.625 161.847 343.131V360.772C161.847 361.301 161.44 361.692 160.943 361.692Z" fill="#000200"/>
<path d="M215.819 293.819C215.796 293.819 215.774 293.819 215.751 293.819L190.213 291.657C189.964 291.634 189.738 291.519 189.602 291.335C189.444 291.151 189.376 290.898 189.399 290.645L191.005 275.856C191.05 275.396 191.435 275.051 191.887 275.051H215.819C216.317 275.051 216.724 275.465 216.724 275.971V292.922C216.724 293.175 216.611 293.428 216.43 293.589C216.249 293.727 216.023 293.819 215.819 293.819ZM191.254 289.909L214.914 291.91V276.868H192.679L191.254 289.909Z" fill="#000200"/>
<path d="M280.128 269.278C271.103 269.278 266.511 262.769 266.081 256.697C265.651 250.74 268.999 243.794 277.346 242.598C283.182 241.747 288.271 243.771 291.303 248.095C294.243 252.281 294.718 258.031 292.501 262.447C290.307 266.817 285.942 269.255 280.241 269.301C280.219 269.278 280.173 269.278 280.128 269.278ZM277.595 244.415C270.379 245.45 267.506 251.43 267.868 256.582C268.253 262.01 272.211 267.461 280.128 267.461C280.173 267.461 280.219 267.461 280.264 267.461C285.263 267.415 289.063 265.345 290.941 261.619C292.863 257.824 292.434 252.81 289.877 249.176C288.317 246.945 284.652 243.403 277.595 244.415Z" fill="#000200"/>
<path d="M157.188 266.794C156.554 262.194 154.451 255.639 157.007 250.487C160.648 243.173 166.846 235.1 169.176 237.906C172.999 242.483 183.54 309.068 181.595 327.951C179.649 346.834 161.621 356.402 161.621 356.402L160.965 343.154C160.965 343.154 169.719 334.828 170.194 318.613C170.669 302.398 160.875 256.766 160.875 256.766L157.188 266.794Z" fill="#000200"/>
<path d="M312.701 326.502C311.367 332.988 308.539 338.278 305.327 342.487C305.214 340.67 305.101 338.83 304.988 337.013C304.377 327.606 301.64 243.311 302.771 240.505C301.074 231.696 306.888 242.069 309.828 248.762C312.317 254.42 315.303 261.78 314.873 269.025C315.348 291.358 314.873 315.968 312.701 326.502Z" fill="#000200"/>
<path d="M145.357 297.775C144.86 297.775 144.452 297.361 144.452 296.855L144.407 227.326C144.407 222.059 148.456 217.827 153.614 217.689C175.759 217.114 175.849 217.229 176.234 217.712C176.415 217.942 176.483 218.241 176.415 218.517C176.302 219 175.804 219.322 175.329 219.184C175.306 219.184 175.284 219.161 175.261 219.161C174.65 219.115 171.212 219.046 153.659 219.529C149.474 219.644 146.194 223.071 146.194 227.326L146.239 296.855C146.262 297.361 145.855 297.775 145.357 297.775Z" fill="#000200"/>
<path d="M308.765 259.572C308.268 259.572 307.861 259.158 307.861 258.652V225.624C307.861 221.323 304.422 217.827 300.192 217.827C299.695 217.827 299.287 217.413 299.287 216.907C299.287 216.401 299.695 215.987 300.192 215.987C305.418 215.987 309.648 220.311 309.648 225.601V258.629C309.648 259.158 309.263 259.572 308.765 259.572Z" fill="#000200"/>
<path d="M149.293 361.692C148.795 361.692 148.388 361.278 148.388 360.772V353.573C148.388 353.067 148.795 352.653 149.293 352.653C149.791 352.653 150.198 353.067 150.198 353.573V360.772C150.198 361.301 149.791 361.692 149.293 361.692Z" fill="#000200"/>
<path d="M286.032 216.93C285.172 203.107 274.36 204.832 274.36 204.832C271.352 196.575 263.57 195.54 263.57 195.54C262.914 185.443 257.96 175.001 236.426 176.128C214.892 177.255 205.549 186.616 206.296 201.221C197.316 201.336 194.104 206.856 194.149 210.49C192.407 206.442 191.932 201.612 191.887 196.046C191.615 171.367 203.333 163.271 247.827 162.834C284.924 162.466 288.565 170.562 289.629 189.1C290.33 201.796 290.42 210.881 286.032 216.93Z" fill="#000200"/>
<path d="M249.93 227.579C199.465 227.579 191.208 218.287 190.982 196.069C190.869 185.397 192.973 178.382 197.836 173.345C205.391 165.502 219.868 162.19 247.804 161.937V162.857V161.937C285.037 161.592 289.402 169.918 290.511 189.054C291.28 202.624 291.37 212.721 285.489 219.069C279.947 225.026 269.316 227.579 249.93 227.579ZM247.827 163.754C220.411 164.007 206.319 167.158 199.125 174.61C194.624 179.279 192.656 185.88 192.769 196.046C192.995 216.24 198.696 225.739 249.93 225.739C268.773 225.739 279.02 223.37 284.177 217.804C289.583 211.985 289.47 202.256 288.724 189.146C287.751 172.218 285.467 163.409 247.827 163.754Z" fill="#000200"/>
<path d="M215.796 213.526C215.683 213.526 215.548 213.503 215.435 213.457C214.982 213.25 214.779 212.721 214.982 212.261C218.172 204.832 226.156 186.593 226.156 186.593C226.36 186.133 226.88 185.926 227.31 186.11C227.559 186.202 251.83 196.23 263.412 194.413C263.909 194.344 264.362 194.689 264.43 195.172C264.498 195.678 264.181 196.138 263.683 196.207C252.713 197.932 231.879 189.905 227.446 188.134C225.862 191.745 219.416 206.488 216.611 212.997C216.475 213.319 216.158 213.526 215.796 213.526Z" fill="#000200"/>
<path d="M205.527 220.633C205.097 220.633 204.713 220.311 204.645 219.874C204.351 217.965 204.78 216.24 205.889 214.883C207.653 212.767 211.001 211.709 215.796 211.709C216.294 211.709 216.701 212.123 216.701 212.629C216.701 213.135 216.294 213.549 215.796 213.549C211.589 213.549 208.648 214.423 207.246 216.079C206.454 217.022 206.183 218.195 206.409 219.598C206.477 220.104 206.16 220.564 205.663 220.656C205.617 220.633 205.572 220.633 205.527 220.633Z" fill="#000200"/>
<path d="M244.207 223.393C243.71 223.393 243.303 222.979 243.303 222.473C243.303 221.967 243.71 221.553 244.207 221.553C245.881 221.553 247.261 221.093 247.917 220.334C248.279 219.897 248.392 219.368 248.302 218.724C248.053 217.275 244.909 216.47 243.416 216.309C242.963 216.263 242.624 215.872 242.624 215.412V207.04C242.624 206.534 243.031 206.12 243.529 206.12C244.026 206.12 244.434 206.534 244.434 207.04V214.607C246.107 214.906 249.681 215.849 250.089 218.425C250.292 219.598 250.021 220.679 249.32 221.507C248.279 222.726 246.469 223.393 244.207 223.393Z" fill="#000200"/>
<path d="M231.631 202.417C230.16 202.578 228.735 202.831 227.31 203.268C226.202 203.613 226.948 205.269 228.057 204.924C229.301 204.533 230.613 204.349 231.925 204.211C233.078 204.073 232.784 202.279 231.631 202.417Z" fill="#000200"/>
<path d="M257.598 203.107C256.671 202.486 255.653 202.049 254.771 201.359C253.866 200.646 252.599 201.957 253.527 202.67C254.522 203.452 255.676 203.981 256.716 204.694C257.689 205.338 258.549 203.728 257.598 203.107Z" fill="#000200"/>
<path d="M264.792 226.429C264.294 226.429 263.887 226.015 263.887 225.532C263.819 216.93 263.593 209.616 262.665 195.609C261.783 182.246 253.21 176.174 236.471 177.048C224.89 177.646 216.611 180.659 211.861 186.018C208.445 189.882 206.861 194.965 207.178 201.175C207.201 201.681 206.816 202.118 206.319 202.141C205.776 202.141 205.391 201.773 205.369 201.267C205.029 194.574 206.748 189.031 210.503 184.799C215.593 179.072 224.279 175.852 236.358 175.231C254.047 174.311 263.502 181.119 264.43 195.494C265.357 209.501 265.583 217.114 265.651 225.532C265.697 226.015 265.312 226.429 264.792 226.429C264.814 226.429 264.792 226.429 264.792 226.429Z" fill="#000200"/>
<path d="M163.793 250.763C163.657 250.763 163.521 250.74 163.408 250.671C162.956 250.464 162.775 249.912 162.978 249.452L163.544 248.256C167.005 240.988 177.523 218.908 176.867 198.622C176.234 179.486 176.415 166.33 184.038 158.188C192.226 149.448 208.196 146.297 247.352 145.676C279.902 145.055 298.405 147.401 300.622 203.084C300.758 206.649 300.871 209.961 300.961 213.043C301.323 224.842 301.572 233.375 303.631 240.229C303.766 240.712 303.517 241.218 303.042 241.379C302.567 241.517 302.07 241.264 301.911 240.781C299.785 233.697 299.536 225.072 299.174 213.112C299.084 210.03 298.971 206.718 298.835 203.153C296.573 146.527 277.007 146.918 247.397 147.493C208.807 148.091 193.154 151.104 185.35 159.43C178.202 167.043 178.066 179.877 178.677 198.553C179.355 219.276 168.679 241.678 165.173 249.038L164.607 250.234C164.449 250.579 164.132 250.763 163.793 250.763Z" fill="#000200"/>
<path d="M194.149 210.513L193.244 210.49C193.221 208.282 194.172 205.982 195.913 204.165C197.565 202.44 200.709 200.37 206.296 200.301C206.748 200.301 207.201 200.692 207.201 201.198C207.201 201.704 206.816 202.118 206.319 202.118C201.342 202.187 198.628 203.958 197.203 205.43C195.823 206.856 195.031 208.742 195.054 210.467L194.149 210.513Z" fill="#000200"/>
<path d="M285.195 218.333C285.195 218.402 285.195 218.448 285.218 218.517C285.761 217.988 286.349 217.482 286.959 217.022C286.959 216.976 286.959 216.93 286.959 216.884C286.665 212.008 285.127 208.42 282.413 206.212C279.631 203.935 276.418 203.797 274.993 203.866C271.668 195.793 264.045 194.666 263.729 194.62C263.231 194.551 262.779 194.896 262.711 195.402C262.643 195.908 262.982 196.368 263.48 196.437C263.774 196.483 270.763 197.541 273.568 205.154C273.727 205.568 274.111 205.798 274.541 205.729C274.586 205.729 278.319 205.177 281.304 207.638C283.589 209.524 284.901 212.652 285.172 216.999C285.172 217.436 285.195 217.873 285.195 218.333Z" fill="#000200"/>
<path d="M230.025 220.817C228.78 220.817 227.491 220.518 226.315 219.92C223.193 218.333 221.384 215.113 221.384 211.065C221.384 210.559 221.791 210.145 222.288 210.145C222.786 210.145 223.193 210.559 223.193 211.065C223.216 214.4 224.641 217.022 227.129 218.287C229.255 219.368 231.744 219.184 233.485 217.873C235.476 216.355 236.222 213.595 235.612 210.099C235.521 209.593 235.861 209.133 236.336 209.041C236.833 208.949 237.286 209.294 237.376 209.777C238.371 215.458 236.041 218.195 234.549 219.322C233.259 220.311 231.653 220.817 230.025 220.817Z" fill="#000200"/>
<path d="M255.495 219.782C254.386 219.782 253.278 219.529 252.26 218.977C249.342 217.482 247.691 214.17 247.691 209.938C247.691 209.432 248.098 209.018 248.596 209.018C249.093 209.018 249.5 209.432 249.5 209.938C249.5 213.457 250.812 216.171 253.097 217.344C254.884 218.264 256.988 218.103 258.594 216.93C260.562 215.481 261.399 212.744 260.878 209.432C260.811 208.926 261.127 208.466 261.625 208.374C262.123 208.305 262.575 208.627 262.665 209.133C263.299 213.135 262.213 216.516 259.657 218.402C258.39 219.322 256.965 219.782 255.495 219.782Z" fill="#000200"/>
<path d="M236.697 214.446C236.381 214.446 236.064 214.285 235.906 213.963C235.657 213.526 235.838 212.974 236.268 212.721C236.539 212.56 243.054 209.018 248.958 211.87C249.41 212.077 249.591 212.629 249.387 213.089C249.184 213.549 248.641 213.733 248.188 213.526C243.099 211.065 237.195 214.285 237.127 214.331C236.992 214.4 236.833 214.446 236.697 214.446Z" fill="#000200"/>
<path d="M251.921 210.283L251.74 212.1C251.491 214.446 255.065 214.814 255.314 212.491L255.495 210.674C255.721 208.328 252.147 207.937 251.921 210.283Z" fill="#000200"/>
<path d="M227.695 210.858L227.514 212.675C227.265 215.021 230.839 215.389 231.088 213.066L231.269 211.249C231.517 208.903 227.943 208.512 227.695 210.858Z" fill="#000200"/>
<path d="M131.287 307.481C130.066 307.481 128.777 307.343 127.397 307.021C118.665 305.066 115.725 290.116 112.309 272.82C111.359 267.967 110.364 262.953 109.21 258.077C109.007 257.272 108.826 256.513 108.645 255.708C106.541 246.876 104.46 238.504 101.791 233.306C94.3261 218.655 81.0933 208.995 76.0942 207.937C75.3478 207.776 75.0085 207.868 74.9406 207.914C74.8275 208.19 74.443 209.869 79.5099 215.159C81.8171 217.551 82.36 221.093 80.935 224.175C79.804 226.636 79.3742 228.89 79.6682 230.914C79.7361 231.42 79.3968 231.88 78.9218 231.949C78.4241 232.018 77.9717 231.673 77.9039 231.19C77.5646 228.798 78.0396 226.176 79.3289 223.393C80.4373 221.001 80.0075 218.264 78.2432 216.424C74.081 212.077 72.475 209.041 73.3346 207.132C73.5155 206.741 74.0132 206.051 75.2799 206.005C75.3025 206.005 75.3478 206.005 75.3704 206.005C80.5278 206.005 95.4119 216.792 103.397 232.455C106.156 237.837 108.283 246.324 110.409 255.271C110.59 256.053 110.771 256.835 110.975 257.617C112.128 262.539 113.123 267.576 114.096 272.452C117.24 288.437 120.204 303.525 127.804 305.227C142.213 308.47 147.868 291.68 154.383 272.268C156.961 264.632 159.608 256.72 163.001 249.429C163.205 248.969 163.747 248.785 164.2 248.992C164.652 249.199 164.833 249.751 164.63 250.211C161.282 257.387 158.635 265.253 156.102 272.843C150.107 290.622 144.452 307.481 131.287 307.481Z" fill="#000200"/>
<path d="M66.5712 229.005C66.4581 229.005 66.345 228.982 66.2319 228.936C61.1876 226.774 47.2535 221.829 43.3176 224.773C42.5712 225.348 42.2545 226.222 42.3676 227.464C42.4128 227.97 42.0509 228.407 41.5533 228.453C41.0556 228.499 40.6258 228.131 40.5806 227.625C40.3544 225.256 41.3497 223.945 42.2545 223.301C45.738 220.702 54.017 222.68 60.0792 224.681C58.1338 223.784 56.0754 223.048 54.2205 222.381C50.3751 221.024 47.5702 220.035 46.9821 218.195C46.8238 217.712 46.7559 216.93 47.3893 215.987C51.099 210.444 72.95 218.954 79.5551 221.714C80.0075 221.898 80.2337 222.427 80.0528 222.91C79.8718 223.37 79.3289 223.6 78.8765 223.416C63.0877 216.861 50.737 214.239 48.8822 217.045C48.6334 217.413 48.6786 217.574 48.7012 217.643C49.0179 218.609 52.0943 219.713 54.8087 220.679C59.0386 222.174 64.3318 224.06 67.2724 227.51C67.5438 227.832 67.5664 228.292 67.3176 228.637C67.1367 228.867 66.8652 229.005 66.5712 229.005Z" fill="#000200"/>
<path d="M62.2281 231.857C60.8256 231.489 59.1291 230.937 57.3195 230.385C50.3299 228.177 42.4128 225.67 39.902 228.614C38.771 229.925 38.8841 231.972 40.2413 234.87C40.2413 234.893 40.2639 234.893 40.2639 234.916C40.7842 234.893 41.3044 234.916 41.8021 234.962C41.9604 234.709 41.983 234.364 41.8473 234.088C40.852 231.995 40.6484 230.5 41.2366 229.81C42.9783 227.763 51.2573 230.408 56.754 232.133C58.5862 232.708 60.3054 233.26 61.7531 233.651C62.2281 233.766 62.7257 233.49 62.8388 233.007C62.9972 232.478 62.7257 231.972 62.2281 231.857Z" fill="#000200"/>
<path d="M125.542 361.692C122.466 361.692 119.231 361.37 115.815 360.68C82.066 353.803 76.0264 306.193 73.131 283.331C72.8596 281.169 72.6108 279.26 72.3845 277.673C71.9548 274.775 71.4571 272.015 70.9369 269.508C70.8238 268.864 70.688 268.243 70.5297 267.622C68.0867 256.674 64.8973 249.383 61.7531 247.566C58.1791 245.496 53.6777 244.3 49.6965 243.242C44.132 241.77 39.7436 240.597 38.8388 237.538C38.5674 236.618 38.296 235.284 39.1555 234.341C40.7842 232.57 45.0141 233.444 58.2017 236.457C58.6767 236.572 58.9934 237.055 58.8803 237.538C58.7672 238.021 58.2922 238.343 57.8172 238.228C48.6786 236.135 41.4854 234.479 40.4901 235.56C40.3318 235.744 40.3544 236.25 40.5806 236.986C41.1913 239.056 45.557 240.229 50.1715 241.448C54.2432 242.529 58.8803 243.748 62.6579 245.956C67.5665 248.785 70.8011 260.469 72.2941 267.162C72.4524 267.783 72.6108 268.473 72.7239 269.14C73.2667 271.67 73.7644 274.453 74.1942 277.397C74.4204 279.007 74.6692 280.916 74.9406 283.101C77.7908 305.549 83.7173 352.285 116.2 358.909C151.51 366.131 168.226 330.826 168.385 330.458C168.588 329.998 169.131 329.814 169.583 330.021C170.036 330.228 170.217 330.78 170.013 331.24C169.832 331.562 155.559 361.692 125.542 361.692Z" fill="#000200"/>
<path d="M71.3892 267.346C71.5702 267.99 71.6833 268.634 71.819 269.278C78.967 270.612 86.3864 270.405 93.5118 268.496C99.8907 266.771 106.428 263.183 110.138 257.847C109.934 257.042 109.753 256.26 109.572 255.478C105.727 262.47 96.5655 266.334 88.8068 267.668C82.9708 268.68 77.0895 268.542 71.3892 267.346Z" fill="#000200"/>
<path d="M138.413 359.714C138.028 359.714 137.666 359.461 137.553 359.07C135.834 353.366 129.908 347.616 122.126 344.12C112.332 339.704 101.451 339.658 92.3129 343.982C91.8605 344.189 91.3402 344.005 91.114 343.545C90.9105 343.085 91.0914 342.556 91.5438 342.326C101.157 337.772 112.558 337.795 122.85 342.441C131.106 346.167 137.395 352.331 139.272 358.541C139.408 359.024 139.159 359.53 138.684 359.691C138.594 359.691 138.503 359.714 138.413 359.714Z" fill="#000200"/>
<path d="M334.281 295.958C320.663 295.958 313.923 274.752 308.878 258.905L308.539 257.847C306.073 250.027 303.947 243.265 301.685 240.252C301.391 239.861 301.459 239.286 301.844 238.964C302.228 238.665 302.794 238.734 303.11 239.125C305.553 242.391 307.747 249.268 310.258 257.249L310.598 258.307C317.203 279.099 324.26 297.453 337.877 293.566C352.445 289.403 355.86 264.333 358.892 242.207L358.959 241.678C359.095 240.85 359.186 240.068 359.299 239.263C360.543 230.132 361.855 221.484 364.072 215.849C370.541 199.381 384.452 187.122 389.519 186.731C390.809 186.639 391.329 187.26 391.555 187.651C392.618 189.468 391.284 192.688 387.483 197.472C385.945 199.404 385.787 202.141 387.076 204.303C388.682 206.994 389.429 209.593 389.293 212.031C389.27 212.537 388.841 212.928 388.343 212.905C387.845 212.882 387.461 212.445 387.483 211.939C387.574 209.869 386.918 207.615 385.516 205.246C383.842 202.44 384.068 198.852 386.058 196.322C390.673 190.48 390.13 188.824 389.972 188.571C389.926 188.548 389.587 188.479 388.841 188.709C383.955 190.273 371.717 201.198 365.7 216.516C363.551 221.967 362.262 230.5 361.018 239.493C360.905 240.298 360.792 241.08 360.679 241.908L360.611 242.414C357.512 265.092 354.006 290.806 338.307 295.268C336.927 295.774 335.57 295.958 334.281 295.958Z" fill="#000200"/>
<path d="M400.309 208.834C400.06 208.834 399.811 208.719 399.631 208.535C399.359 208.213 399.336 207.753 399.563 207.408C402.164 203.682 407.231 201.29 411.303 199.381C413.926 198.162 416.89 196.759 417.093 195.77C417.116 195.701 417.139 195.54 416.867 195.195C414.741 192.596 402.707 196.437 387.619 204.51C387.189 204.74 386.647 204.579 386.398 204.119C386.172 203.682 386.33 203.13 386.782 202.877C393.093 199.496 414.017 188.847 418.247 193.999C418.948 194.85 418.971 195.632 418.858 196.138C418.45 198.001 415.759 199.266 412.072 201.014C410.285 201.865 408.294 202.785 406.439 203.889C412.275 201.29 420.351 198.484 424.06 200.738C425.01 201.313 426.141 202.486 426.141 204.878C426.141 205.384 425.734 205.798 425.237 205.798C424.739 205.798 424.332 205.384 424.332 204.878C424.332 203.636 423.947 202.785 423.133 202.302C418.948 199.772 405.534 206.074 400.739 208.719C400.603 208.811 400.467 208.834 400.309 208.834Z" fill="#000200"/>
<path d="M405.308 212.997C404.946 212.997 404.607 212.767 404.471 212.399C404.29 211.916 404.539 211.41 405.014 211.226C406.371 210.72 408.023 210.007 409.764 209.271C416.505 206.373 424.151 203.084 426.933 205.775C428.177 206.971 428.268 209.018 427.182 212.031C427.001 212.514 426.503 212.744 426.028 212.583C425.553 212.422 425.327 211.893 425.485 211.41C426.277 209.225 426.345 207.73 425.689 207.086C423.766 205.223 415.759 208.673 410.466 210.95C408.701 211.709 407.027 212.422 405.647 212.951C405.512 212.974 405.399 212.997 405.308 212.997Z" fill="#000200"/>
<path d="M342.99 348.881C317.587 348.881 305.146 330.964 305.01 330.757C304.739 330.343 304.829 329.768 305.237 329.492C305.644 329.216 306.209 329.308 306.481 329.722C306.639 329.952 322.337 352.469 354.616 345.822C388.388 338.876 393.975 289.012 396.961 262.217C397.142 260.607 397.301 259.089 397.482 257.64C397.64 256.214 397.73 254.788 397.821 253.362C397.911 251.982 398.002 250.625 398.138 249.291C398.183 248.647 398.273 247.957 398.386 247.267C399.223 240.482 401.327 228.545 405.942 225.233C409.493 222.68 413.972 221.001 417.93 219.506C422.409 217.827 426.639 216.24 427.046 214.124C427.182 213.365 427.182 212.859 427.001 212.698C425.915 211.709 418.903 214.078 410.013 217.068C409.538 217.229 409.041 216.976 408.882 216.493C408.724 216.01 408.973 215.504 409.448 215.343C422.273 211.042 426.413 209.731 428.2 211.341C429.15 212.192 429.014 213.549 428.833 214.492C428.245 217.62 423.97 219.23 418.564 221.231C414.718 222.68 410.352 224.313 406.982 226.728C404.019 228.844 401.531 236.434 400.173 247.52C400.06 248.187 399.992 248.831 399.947 249.452C399.789 250.786 399.721 252.097 399.631 253.454C399.54 254.903 399.45 256.352 399.269 257.824C399.11 259.273 398.929 260.791 398.748 262.378C395.695 289.633 390.017 340.348 354.978 347.547C350.703 348.513 346.722 348.881 342.99 348.881Z" fill="#000200"/>
<path d="M399.291 247.474C399.178 248.141 399.11 248.785 399.065 249.452C392.075 251.499 384.679 252.028 377.418 250.832C370.903 249.751 364.072 246.83 359.864 241.885C360 241.057 360.09 240.275 360.204 239.47C364.705 246.048 374.183 248.992 382.032 249.544C387.891 249.935 393.727 249.199 399.291 247.474Z" fill="#000200"/>
<path d="M332.63 348.03C332.516 348.03 332.426 348.007 332.313 347.984C331.838 347.8 331.612 347.294 331.77 346.811C338.782 327.353 366.944 319.625 381.783 324.11C382.258 324.248 382.53 324.754 382.394 325.237C382.258 325.72 381.761 325.996 381.286 325.858C367.08 321.58 340.139 328.917 333.467 347.455C333.331 347.8 332.992 348.03 332.63 348.03Z" fill="#000200"/>
<path d="M244.592 84.151C240.475 80.08 231.54 76.147 212.336 80.54C212.041 80.609 211.793 80.816 211.702 81.115C211.589 81.414 211.634 81.736 211.815 81.966L215.661 87.325C215.887 87.647 216.271 87.785 216.633 87.67C224.799 85.186 231.766 85.485 236.268 88.498C239.027 90.338 240.701 93.19 241.108 96.755C242.149 105.771 225.274 108.209 225.116 108.232C224.664 108.301 224.324 108.715 224.347 109.175L225.093 124.447C225.116 124.93 225.523 125.321 225.998 125.321H229.278C229.527 125.321 229.753 125.229 229.934 125.045C230.092 124.861 230.205 124.631 230.183 124.378L229.844 113.453C233.237 112.694 246.582 109.129 248.573 98.779C249.659 92.983 248.256 87.785 244.592 84.151Z" fill="#000200"/>
<path d="M229.911 128.518H225.41C224.98 128.518 224.618 128.817 224.528 129.231L223.261 134.981C223.216 135.234 223.261 135.487 223.397 135.694C223.533 135.901 223.759 136.039 224.008 136.085L229.753 136.982C229.798 136.982 229.844 136.982 229.889 136.982C230.092 136.982 230.319 136.913 230.477 136.752C230.681 136.568 230.794 136.315 230.794 136.062V129.415C230.816 128.932 230.409 128.518 229.911 128.518Z" fill="#000200"/>
</svg>
