<svg width="480" height="415" viewBox="0 0 480 415" fill="none" xmlns="http://www.w3.org/2000/svg">
<rect width="488" height="460" transform="translate(0 -45)" fill="white"/>
<path d="M59.8387 57.1891L66.2319 248.135H194.05L198.374 57.1891H59.8387Z" fill="#F6C8E2"/>
<path d="M359.883 69.632C357.56 72.622 355.261 75.589 352.938 78.579C352.087 79.683 353.628 81.27 354.502 80.143C356.824 77.153 359.124 74.186 361.447 71.196C362.298 70.092 360.757 68.505 359.883 69.632Z" fill="#FE7122"/>
<path d="M338.542 84.26V98.681L349.327 92.931L338.542 84.26Z" fill="#FE7122"/>
<path d="M117.723 276.862C113.997 273.389 110.249 269.916 106.523 266.42C105.488 265.454 103.924 267.018 104.959 267.984C108.685 271.457 112.433 274.93 116.159 278.426C117.194 279.369 118.758 277.828 117.723 276.862Z" fill="#FE7122"/>
<path d="M143.617 89.0441L150.241 97.5541L162.015 89.0441L152.816 79.0851L143.617 89.0441Z" fill="#8C5FF8"/>
<path d="M233.26 72.5296C242.091 72.5066 250.876 73.1506 259.753 72.8056C263.846 72.6446 267.94 72.5066 272.033 72.5986C268.193 65.5836 259.914 60.2706 242.965 60.2706C216.495 60.2706 207.687 71.3106 207.687 88.9516C207.687 106.593 207.687 106.593 207.687 106.593L207.894 106.961C210.792 106.616 213.299 107.536 215.667 107.651C223.44 97.4846 206.101 72.6216 233.26 72.5296Z" fill="#2D2D2D"/>
<path d="M252.003 122.325C251.382 122.325 250.899 121.842 250.899 121.221C250.899 120.6 251.382 120.117 252.003 120.117C254.073 120.117 255.775 119.565 256.556 118.645C256.993 118.116 257.154 117.495 257.016 116.713C256.717 114.965 252.854 113.999 251.014 113.792C250.462 113.723 250.025 113.263 250.025 112.688V102.591C250.025 101.97 250.508 101.487 251.129 101.487C251.75 101.487 252.233 101.97 252.233 102.591V111.745C254.28 112.113 258.672 113.24 259.178 116.345C259.408 117.771 259.086 119.059 258.212 120.071C256.993 121.52 254.786 122.325 252.003 122.325Z" fill="#2D2D2D"/>
<path d="M259.96 100.682V102.89C259.96 105.719 264.375 105.742 264.375 102.89V100.682C264.375 97.8533 259.96 97.8533 259.96 100.682Z" fill="#2D2D2D"/>
<path d="M229.006 100.682V102.89C229.006 105.719 233.421 105.742 233.421 102.89V100.682C233.421 97.8533 229.006 97.8533 229.006 100.682Z" fill="#2D2D2D"/>
<path d="M232.846 90.4933C231.03 90.5393 229.259 90.7003 227.488 91.0913C226.108 91.4133 226.867 93.4833 228.224 93.1613C229.788 92.8163 231.421 92.7243 233.03 92.6783C234.456 92.6323 234.249 90.4473 232.846 90.4933Z" fill="#2D2D2D"/>
<path d="M265.065 90.4932C263.754 90.2172 262.375 90.1712 261.064 89.7802C259.707 89.3892 258.833 91.4132 260.19 91.8042C261.685 92.2412 263.226 92.3332 264.72 92.6782C266.146 92.9772 266.445 90.7922 265.065 90.4932Z" fill="#2D2D2D"/>
<path d="M276.357 96.0822C276.288 92.6552 276.219 89.0902 276.173 85.3872C275.897 67.9992 264.743 59.1672 243.011 59.1672C218.174 59.1672 206.63 68.6202 206.63 88.9522V106.593C206.63 107.214 207.113 107.697 207.733 107.697C208.354 107.697 208.837 107.214 208.837 106.593V88.9522C208.837 69.8852 219.37 61.3752 243.011 61.3752C263.594 61.3752 273.712 69.2412 273.965 85.4102C274.034 89.1132 274.103 92.6782 274.172 96.1052C274.793 128.466 275.184 147.993 264.513 154.157C255.361 159.447 238.826 158.435 238.665 158.412C238.274 158.389 237.929 158.55 237.699 158.849C237.469 159.148 237.423 159.539 237.561 159.884C239.608 165.335 247.289 168.348 251.543 169.659C253.015 166.899 254.556 164.162 255.729 161.264V159.585C255.729 159.562 255.729 159.516 255.729 159.493C259.224 158.803 262.72 157.722 265.617 156.043C277.392 149.258 277.001 129.248 276.357 96.0822Z" fill="#2D2D2D"/>
<path d="M256.165 158.435C255.751 158.412 255.338 158.642 255.131 159.033L241.309 186.633L213.184 156.664C212.77 156.227 212.08 156.204 211.62 156.618C211.183 157.032 211.16 157.722 211.574 158.182L240.803 189.301C241.01 189.531 241.309 189.646 241.608 189.646C241.654 189.646 241.723 189.646 241.769 189.623C242.114 189.577 242.436 189.347 242.597 189.025L256.188 161.908V158.435H256.165Z" fill="#2D2D2D"/>
<path d="M226.522 198.087C226.499 198.087 226.476 198.087 226.453 198.087C226.108 198.064 225.786 197.88 225.602 197.604L205.112 166.646C204.859 166.255 204.859 165.749 205.135 165.381L211.252 157.101L210.355 123.659C205.457 123.613 202.72 122.003 201.225 120.577C199.569 118.99 198.65 116.874 198.65 114.62C198.65 112.182 199.362 110.296 200.857 108.893C203.387 106.501 208.009 105.512 215.001 105.857C215.598 105.88 216.081 106.409 216.035 107.007C216.012 107.605 215.437 108.088 214.886 108.042C208.607 107.72 204.399 108.548 202.375 110.48C201.317 111.492 200.857 112.757 200.857 114.62C200.857 115.563 201.11 117.403 202.766 118.99C204.606 120.738 207.572 121.589 211.39 121.451C211.666 121.428 211.965 121.543 212.195 121.75C212.402 121.957 212.54 122.233 212.54 122.532L213.483 157.446C213.483 157.699 213.414 157.929 213.276 158.136L207.388 166.094L226.66 195.212L236.595 183.735C236.986 183.275 237.699 183.229 238.159 183.62C238.619 184.011 238.665 184.724 238.274 185.184L227.396 197.765C227.143 197.949 226.844 198.087 226.522 198.087Z" fill="#2D2D2D"/>
<path d="M253.015 195.005C252.693 195.005 252.394 194.867 252.164 194.614L243.264 184.103C242.965 183.758 242.919 183.275 243.126 182.884L255.131 160.321C255.269 160.045 255.522 159.838 255.82 159.769C256.119 159.7 256.441 159.746 256.694 159.907L262.306 163.541C262.72 163.817 262.904 164.3 262.766 164.783L254.027 194.246C253.912 194.637 253.59 194.936 253.199 195.005C253.176 195.005 253.107 195.005 253.015 195.005ZM245.449 183.252L252.555 191.647L260.466 164.944L256.556 162.414L245.449 183.252Z" fill="#2D2D2D"/>
<path d="M231.789 112.803C230.248 112.803 228.684 112.458 227.235 111.722C223.395 109.813 221.187 105.926 221.164 101.05C221.164 100.429 221.647 99.9462 222.268 99.9462C222.866 99.9462 223.372 100.429 223.372 101.05C223.395 105.075 225.165 108.249 228.224 109.767C230.823 111.055 233.881 110.871 236.02 109.261C238.458 107.444 239.378 104.109 238.642 99.9002C238.527 99.3022 238.941 98.7272 239.539 98.6122C240.136 98.4972 240.711 98.9112 240.826 99.5092C242.045 106.363 239.194 109.675 237.377 111.032C235.767 112.205 233.789 112.803 231.789 112.803Z" fill="#2D2D2D"/>
<path d="M263.065 111.561C261.708 111.561 260.351 111.239 259.086 110.595C255.522 108.778 253.475 104.799 253.475 99.6932C253.475 99.0722 253.958 98.5892 254.579 98.5892C255.2 98.5892 255.683 99.0722 255.683 99.6932C255.683 103.948 257.292 107.214 260.098 108.64C262.283 109.767 264.881 109.56 266.836 108.134C269.251 106.363 270.286 103.074 269.642 99.0722C269.55 98.4742 269.964 97.8992 270.562 97.8072C271.16 97.7152 271.735 98.1292 271.827 98.7272C272.608 103.58 271.252 107.651 268.147 109.905C266.629 110.986 264.858 111.561 263.065 111.561Z" fill="#2D2D2D"/>
<path d="M239.998 105.121C239.608 105.121 239.24 104.914 239.033 104.546C238.734 104.017 238.941 103.35 239.47 103.051C239.815 102.867 247.795 98.5662 255.062 102.039C255.614 102.292 255.844 102.959 255.591 103.511C255.338 104.063 254.671 104.293 254.119 104.04C247.864 101.073 240.619 104.96 240.55 105.006C240.343 105.075 240.159 105.121 239.998 105.121Z" fill="#2D2D2D"/>
<path d="M259.707 125.039L256.004 125.844C254.625 126.143 255.2 128.259 256.579 127.96C257.821 127.684 259.063 127.431 260.282 127.155C261.685 126.856 261.087 124.74 259.707 125.039Z" fill="#2D2D2D"/>
<path d="M137.638 321.942C137.04 321.942 136.534 321.459 136.534 320.838C135.637 195.971 174.709 178.675 203.249 166.025L205.595 164.99C206.147 164.737 206.813 164.99 207.043 165.542C207.296 166.094 207.043 166.761 206.492 166.991L204.146 168.026C176.181 180.423 137.868 197.374 138.742 320.792C138.742 321.436 138.259 321.942 137.638 321.942Z" fill="#2D2D2D"/>
<path d="M180.068 321.942C179.447 321.942 178.964 321.459 178.964 320.838V243.42C178.964 242.799 179.447 242.316 180.068 242.316C180.688 242.316 181.171 242.799 181.171 243.42V320.838C181.171 321.436 180.688 321.942 180.068 321.942Z" fill="#2D2D2D"/>
<path d="M245.288 317.043C244.69 317.043 244.207 316.56 244.184 315.962L240.504 188.565C240.481 187.944 240.964 187.438 241.585 187.438C242.275 187.415 242.712 187.898 242.712 188.519L246.391 315.916C246.414 316.537 245.931 317.043 245.311 317.043C245.288 317.043 245.288 317.043 245.288 317.043Z" fill="#2D2D2D"/>
<path d="M301.401 319.665C300.826 319.665 300.343 319.228 300.297 318.653C296.18 267.524 294.226 241.189 294.502 240.384C294.685 239.809 295.329 239.487 295.904 239.694C296.433 239.855 296.732 240.384 296.64 240.913C296.548 243.282 300.09 288.523 302.505 318.492C302.551 319.09 302.091 319.619 301.493 319.688C301.47 319.665 301.447 319.665 301.401 319.665Z" fill="#2D2D2D"/>
<path d="M207.71 283.233C207.503 283.233 207.296 283.187 207.135 283.072L189.819 272.285C189.52 272.101 189.313 271.779 189.313 271.411L187.358 236.336C187.335 236.037 187.45 235.738 187.657 235.508C187.864 235.278 188.163 235.163 188.462 235.163H224.59C224.889 235.163 225.165 235.278 225.372 235.485C225.579 235.692 225.694 235.968 225.694 236.267L225.671 271.02C225.671 271.388 225.487 271.733 225.165 271.94L208.308 283.049C208.124 283.164 207.917 283.233 207.71 283.233ZM191.451 270.698L207.664 280.818L223.417 270.422L223.44 237.371H189.612L191.451 270.698Z" fill="#2D2D2D"/>
<path d="M316.349 246.111C316.303 246.111 316.257 246.111 316.211 246.111C314.693 246.042 310.094 245.858 306.23 222.237C301.999 196.224 285.211 174.995 261.34 165.496C260.765 165.266 260.489 164.622 260.719 164.07C260.949 163.495 261.593 163.219 262.145 163.449C286.729 173.247 304.022 195.097 308.392 221.892C311.772 242.684 315.544 243.903 316.28 243.926C316.901 243.995 320.143 243.282 324.03 227.642C326.077 219.454 327.709 208.575 329.434 197.052C332.585 176.03 335.873 154.272 342.129 145.302C350.247 133.641 368.231 126.281 390.101 136.125C412.684 146.291 408.338 163.035 408.292 163.219C408.131 163.817 407.395 165.358 406.797 165.197C406.222 165.036 406.015 163.219 406.176 162.621C406.337 162 409.993 147.487 389.204 138.126C368.483 128.811 351.558 135.642 343.945 146.567C337.989 155.123 334.747 176.605 331.642 197.374C329.894 208.943 328.261 219.891 326.192 228.171C323.179 240.223 319.959 246.111 316.349 246.111Z" fill="#2D2D2D"/>
<path d="M401.921 173.684C401.668 173.684 401.438 173.592 401.231 173.431C400.772 173.04 401.484 171.43 401.875 170.97C408.453 162.989 404.957 158.757 398.426 152.731C397.989 152.317 397.943 151.627 398.357 151.167C398.771 150.707 399.461 150.684 399.921 151.098C406.728 157.377 411.327 162.943 403.577 172.373C403.347 172.626 402.243 173.684 401.921 173.684Z" fill="#2D2D2D"/>
<path d="M380.465 182.815C380.442 183.068 380.373 183.298 380.235 183.528C379.913 184.149 378.993 184.609 377.751 184.747C375.199 185.023 371.059 183.942 367.77 179.986C362.895 174.075 361.791 169.176 361.768 169.13C361.63 168.532 361.055 168.164 360.457 168.279C359.859 168.417 359.492 168.992 359.606 169.59C359.652 169.82 360.825 175.041 366.069 181.389C369.495 185.552 373.865 187.001 376.969 187.001C377.314 187.001 377.659 186.978 377.981 186.955C379.407 186.794 380.603 186.311 381.408 185.552C381.086 184.655 380.764 183.735 380.465 182.815Z" fill="#2D2D2D"/>
<path d="M394.079 156.641C393.642 156.204 392.952 156.204 392.515 156.641C392.079 157.078 392.079 157.768 392.515 158.205C392.584 158.274 400.082 165.818 400.105 173.086C400.105 175.639 399.162 177.87 397.276 179.756C393.573 183.459 388.146 184.54 386.306 183.482C385.961 183.275 385.777 183.045 385.938 182.47C386.283 181.182 387.364 180.446 388.606 179.595C390.492 178.284 392.86 176.674 391.803 172.718C390.791 168.969 387.548 164.921 383.915 162.897C381.753 161.701 379.706 161.333 377.958 161.862C375.774 162.506 374.118 164.346 373.405 166.899C372.531 169.981 373.267 173.408 375.245 175.616C375.774 176.214 376.325 176.789 376.831 177.318C378.096 178.675 379.108 179.779 379.729 180.722C379.269 179.181 378.878 177.617 378.625 176.03C378.556 175.961 378.487 175.892 378.418 175.823C377.912 175.294 377.383 174.742 376.877 174.144C375.383 172.488 374.854 169.889 375.521 167.497C376.027 165.703 377.13 164.415 378.579 163.978C380.028 163.541 381.684 164.185 382.811 164.829C385.915 166.554 388.79 170.119 389.641 173.293C390.262 175.639 389.273 176.444 387.318 177.778C385.915 178.744 384.328 179.825 383.777 181.895C383.386 183.344 383.892 184.655 385.156 185.391C388.008 187.047 394.447 185.667 398.794 181.32C401.093 179.02 402.266 176.237 402.266 173.086C402.312 164.898 394.424 156.963 394.079 156.641Z" fill="#2D2D2D"/>
<path d="M408.154 161.172C407.901 161.172 408.085 160.321 407.878 160.16C407.418 159.769 407.349 159.079 407.74 158.596C407.74 158.596 408.361 157.745 409.855 153.973C410.706 151.88 410.637 148.522 408.637 145.762C406.958 143.462 403.324 140.817 395.574 141.346C394.953 141.392 394.447 140.932 394.401 140.311C394.355 139.713 394.815 139.184 395.436 139.138C404.198 138.54 408.43 141.691 410.43 144.451C412.937 147.878 412.983 152.11 411.902 154.778C410.292 158.826 409.58 159.815 409.419 160.022C409.212 160.275 408.476 161.172 408.154 161.172Z" fill="#2D2D2D"/>
<path d="M328.514 304.784C314.67 304.784 305.172 299.448 298.825 294.986C298.319 294.641 298.204 293.951 298.549 293.445C298.894 292.939 299.584 292.824 300.09 293.169C307.794 298.597 320.327 305.336 340.036 301.38C365.862 296.182 368.621 247.422 370.438 215.153C371.22 201.33 371.841 190.428 373.888 185.276C374.118 184.701 374.762 184.425 375.314 184.655C375.889 184.885 376.165 185.529 375.935 186.081C374.026 190.911 373.382 202.204 372.646 215.268C370.668 250.182 367.978 297.999 340.473 303.542C336.172 304.416 332.194 304.784 328.514 304.784Z" fill="#2D2D2D"/>
<path d="M372.646 193.05C358.687 197.236 343.647 192.544 334.471 181.251C333.574 180.147 332.033 181.711 332.907 182.815C342.566 194.683 358.595 199.559 373.244 195.166C374.578 194.752 374.003 192.636 372.646 193.05Z" fill="#2D2D2D"/>
<path d="M298.066 276.264C306.92 292.916 316.05 301.702 325.571 303.588C319.27 304.002 310.738 301.104 299.469 294.089L298.066 276.264Z" fill="#2D2D2D"/>
<path d="M145.963 237.371H83.9165C83.3186 237.371 82.8356 236.888 82.8126 236.313L76.4424 45.367C76.4424 45.068 76.5344 44.769 76.7414 44.562C76.9484 44.355 77.2243 44.217 77.5233 44.217H216.058C216.357 44.217 216.633 44.332 216.84 44.562C217.047 44.769 217.162 45.068 217.139 45.367L216.219 72.714C216.196 73.335 215.69 73.841 215.092 73.772C214.494 73.749 214.012 73.243 214.035 72.645L214.908 46.448H78.6731L84.9744 235.186H145.94C146.561 235.186 147.044 235.669 147.044 236.29C147.044 236.911 146.561 237.371 145.963 237.371Z" fill="#2D2D2D"/>
<path d="M78.3283 70.1149C77.7303 70.1149 77.2244 69.6319 77.2244 69.0339C77.2244 68.4129 77.7073 67.9299 78.3053 67.9069L216.035 66.3429C216.61 66.2969 217.139 66.8259 217.162 67.4239C217.162 68.0449 216.679 68.5279 216.081 68.5509L78.3283 70.1149C78.3513 70.1149 78.3283 70.1149 78.3283 70.1149Z" fill="#2D2D2D"/>
<path d="M128.577 141.898H101.693C101.095 141.898 100.612 141.415 100.589 140.817L100.06 115.586C100.037 114.988 100.52 114.482 101.141 114.459L129.083 113.723C129.382 113.723 129.681 113.838 129.888 114.045C130.095 114.252 130.21 114.551 130.21 114.85L129.681 140.817C129.658 141.415 129.175 141.898 128.577 141.898ZM102.774 139.69H127.496L127.979 115.954L102.291 116.644L102.774 139.69Z" fill="#2D2D2D"/>
<path d="M175.514 141.898H147.205C146.584 141.898 146.101 141.415 146.101 140.794V114.827C146.101 114.206 146.584 113.723 147.205 113.723H175.514C176.135 113.723 176.618 114.206 176.618 114.827V140.794C176.618 141.392 176.112 141.898 175.514 141.898ZM148.309 139.69H174.41V115.931H148.309V139.69Z" fill="#2D2D2D"/>
<path d="M166.499 193.763H146.193C145.618 193.763 145.158 193.326 145.089 192.751L142.513 164.53C142.49 164.231 142.582 163.932 142.789 163.702C142.996 163.472 143.272 163.334 143.571 163.334L175.468 161.77C175.767 161.77 176.066 161.862 176.273 162.069C176.503 162.276 176.618 162.575 176.618 162.874V183.436C176.618 184.057 176.135 184.54 175.514 184.54C174.893 184.54 174.41 184.057 174.41 183.436V164.024L144.813 165.473L147.205 191.532H166.499C167.12 191.532 167.603 192.015 167.603 192.636C167.603 193.257 167.12 193.763 166.499 193.763Z" fill="#2D2D2D"/>
<path d="M143.617 143.945C143.318 143.945 143.019 143.83 142.789 143.577C142.375 143.117 142.421 142.427 142.881 142.013L179.332 109.606C179.792 109.192 180.482 109.238 180.896 109.698C181.31 110.158 181.264 110.848 180.804 111.262L144.353 143.669C144.146 143.853 143.87 143.945 143.617 143.945Z" fill="white"/>
<path d="M101.165 143.945C100.912 143.945 100.636 143.853 100.429 143.669C99.9687 143.255 99.9457 142.565 100.36 142.105L128.301 111.17C128.715 110.71 129.405 110.687 129.865 111.101C130.325 111.515 130.348 112.205 129.934 112.665L101.992 143.577C101.762 143.83 101.463 143.945 101.165 143.945Z" fill="white"/>
<path d="M124.024 198.087C123.633 198.087 123.242 197.88 123.035 197.489L117.101 186.196C116.825 185.667 117.032 185 117.561 184.701C118.09 184.425 118.78 184.632 119.056 185.161L124.989 196.454C125.265 196.983 125.058 197.65 124.53 197.949C124.369 198.041 124.185 198.087 124.024 198.087Z" fill="#2D2D2D"/>
<path d="M124.024 46.4249C123.633 46.4249 123.265 46.2179 123.058 45.8499C122.759 45.3209 122.966 44.6539 123.495 44.3549L152.701 28.2549C153.023 28.0709 153.437 28.0709 153.759 28.2549L182.735 44.3549C183.264 44.6539 183.448 45.3209 183.172 45.8499C182.873 46.379 182.206 46.5859 181.677 46.2869L153.23 30.4859L124.552 46.3099C124.391 46.379 124.207 46.4249 124.024 46.4249Z" fill="#2D2D2D"/>
<path d="M83.9165 237.371H77.3623C76.7644 237.371 76.2815 236.888 76.2585 236.29L71.5211 48.4949C71.5211 48.1959 71.636 47.9199 71.843 47.6899C72.05 47.4599 72.326 47.3679 72.6249 47.3679H77.5463C78.1672 47.3679 78.6502 47.8509 78.6502 48.4719C78.6502 49.0929 78.1672 49.5759 77.5463 49.5759H73.7518L78.4202 235.163H83.8935C84.5145 235.163 84.9974 235.646 84.9974 236.267C84.9974 236.888 84.5375 237.371 83.9165 237.371Z" fill="#2D2D2D"/>
<path d="M416.433 220.995C416.433 220.995 412.822 216.671 407.165 215.061C401.508 213.428 401.761 191.233 385.617 191.854C372.669 192.36 371.197 207.31 374.003 217.292C376.786 227.274 369.381 229.367 371.772 235.485L385.709 230.954C392.263 238.383 405.463 233.323 402.841 225.388L416.433 220.995Z" fill="#FE7122"/>
<path d="M375.383 231.897C374.946 231.897 374.532 231.621 374.348 231.207C373.083 227.964 374.21 225.595 375.314 223.318C376.602 220.673 377.935 217.913 376.533 212.899C374.808 206.735 374.348 197.397 378.763 191.348C381.201 188.013 384.697 186.242 389.181 186.058C400.404 185.621 404.198 195.304 406.981 202.342C408.315 205.7 409.557 208.851 411.051 209.288C416.962 210.99 420.71 215.383 420.871 215.567C421.101 215.843 421.193 216.234 421.078 216.579C420.986 216.924 420.71 217.2 420.365 217.315L375.705 231.805C375.613 231.897 375.498 231.897 375.383 231.897ZM389.273 188.289C385.501 188.427 382.581 189.899 380.557 192.659C376.878 197.719 376.947 206.183 378.671 212.301C380.304 218.12 378.648 221.524 377.314 224.284C376.418 226.147 375.728 227.573 376.096 229.413L417.974 215.82C416.525 214.486 413.857 212.416 410.43 211.45C407.901 210.714 406.567 207.402 404.911 203.193C402.243 196.385 398.886 187.967 389.273 188.289Z" fill="#2D2D2D"/>
<path d="M397.506 231C394.309 231 390.975 229.827 388.491 227.021C388.077 226.561 388.123 225.871 388.583 225.457C389.043 225.066 389.733 225.089 390.147 225.549C393.597 229.459 399.093 229.482 402.542 227.504C405.187 225.986 406.245 223.594 405.417 221.064C405.233 220.489 405.532 219.868 406.107 219.661C406.682 219.477 407.303 219.776 407.51 220.351C408.683 223.893 407.211 227.343 403.646 229.39C401.922 230.402 399.76 231 397.506 231Z" fill="#2D2D2D"/>
<path d="M387.065 185.023C386.674 184.862 386.33 184.632 386.008 184.333C385.157 183.482 385.065 182.263 385.456 181.159C385.502 180.998 385.617 180.883 385.732 180.837C385.778 180.745 385.824 180.676 385.87 180.584C383.846 173.5 381.316 167.152 378.671 167.497C377.545 167.635 376.97 168.256 376.671 168.762C375.268 171.154 377.062 176.674 381.937 188.979C382.098 189.416 382.535 189.669 382.972 189.669C383.11 189.669 383.248 189.646 383.386 189.6C383.961 189.37 384.237 188.726 384.007 188.174C381.408 181.619 377.499 171.729 378.579 169.889C378.625 169.82 378.671 169.728 378.832 169.682C380.212 170.188 383.202 178.33 385.364 187.438C385.502 188.036 386.1 188.404 386.697 188.266C387.295 188.128 387.663 187.53 387.525 186.932C387.364 186.288 387.226 185.644 387.065 185.023Z" fill="#2D2D2D"/>
<path d="M365.586 228.217C359.078 222.467 358.227 213.428 363.838 206.735C364.735 205.654 363.194 204.09 362.274 205.171C355.927 212.761 356.571 223.203 364.022 229.781C365.08 230.724 366.644 229.16 365.586 228.217Z" fill="#40BBC3"/>
<path d="M349.557 233.438C335.713 226.216 341.899 209.265 349.281 199.789C350.132 198.685 348.591 197.121 347.717 198.225C339.484 208.782 333.206 227.389 348.453 235.324C349.718 236.014 350.822 234.105 349.557 233.438Z" fill="#40BBC3"/>
<path d="M415.26 189.623C413.903 189.186 413.328 191.302 414.685 191.739C421.837 194.085 430.668 199.605 427.701 208.46C427.241 209.817 429.38 210.392 429.817 209.035C433.198 198.961 423.539 192.337 415.26 189.623Z" fill="#40BBC3"/>
<path d="M419.331 177.249C417.951 177.065 417.353 179.181 418.756 179.365C435.957 181.78 445.501 199.697 437.521 215.314C436.877 216.579 438.786 217.683 439.43 216.418C447.962 199.697 438.05 179.871 419.331 177.249Z" fill="#40BBC3"/>
</svg>
