<svg width="24" height="25" viewBox="0 0 24 25" fill="none" xmlns="http://www.w3.org/2000/svg">
<g clip-path="url(#clip0_1_1191)">
<path d="M4.66964 0.877687C4.12289 0.52439 3.46617 0.417609 2.85019 0.563015L13.6751 11.388L17.1835 7.87959L4.66964 0.877687Z" fill="white"/>
<path d="M1.50666 1.44287C1.20474 1.84426 1.03098 2.33711 1.03098 2.85845V22.1409C1.03098 22.6622 1.20479 23.155 1.50666 23.5564L12.5634 12.4997L1.50666 1.44287Z" fill="white"/>
<path d="M21.7622 10.4415L18.6091 8.67725L14.7867 12.4996L18.6093 16.3222L21.7627 14.5578C22.5182 14.1345 22.9692 13.3652 22.9692 12.4996C22.9692 11.634 22.5182 10.8648 21.7622 10.4415Z" fill="white"/>
<path d="M13.675 13.6116L2.85074 24.4359C3.02821 24.4776 3.20882 24.5001 3.38943 24.5001C3.83577 24.5001 4.28057 24.3732 4.66958 24.1218L17.1836 17.12L13.675 13.6116Z" fill="white"/>
</g>
<defs>
<clipPath id="clip0_1_1191">
<rect width="24" height="24" fill="white" transform="translate(0 0.5)"/>
</clipPath>
</defs>
</svg>
