<svg width="480" height="461" viewBox="0 0 480 461" fill="none" xmlns="http://www.w3.org/2000/svg">
<rect width="480" height="460" transform="translate(0 0.5)" fill="white"/>
<path d="M374.884 344.948L331.567 344.971V367.373L375.563 364.567L374.884 344.948Z" fill="#F674B4"/>
<path d="M256.897 245.588C257.893 241.724 265.651 232.041 262.168 228.844C260.743 227.533 259.34 224.566 260.72 224.014C261.376 223.554 266.76 223.577 267.303 223.807C270.786 219.713 276.916 206.051 278.16 204.073C281.621 198.599 285.602 194.275 291.642 192.665L276.577 103.126L113.644 133.739L148.117 275.557L255.54 251.545C255.699 249.475 256.355 247.704 256.897 245.588Z" fill="#FFCB56"/>
<path d="M259.408 189.422C259.408 210.398 251.355 228.154 222.062 228.154C201.433 228.154 184.716 210.398 184.716 189.422C184.716 168.446 201.433 151.449 222.062 151.449C242.692 151.449 259.408 168.446 259.408 189.422Z" fill="white"/>
<path d="M106.903 115.132C106.903 118.03 105.795 120.468 101.746 120.468C98.8955 120.468 96.5882 118.03 96.5882 115.132C96.5882 112.234 98.8955 109.888 101.746 109.888C104.596 109.888 106.903 112.234 106.903 115.132Z" fill="#7BAEED"/>
<path d="M316.592 91.3731C316.321 91.3731 316.027 91.2351 315.868 90.9821C314.353 88.8201 309.557 83.3001 305.87 83.7601C305.508 83.8061 305.146 83.6221 304.965 83.2771C304.784 82.9551 304.83 82.5411 305.078 82.2651C308.63 78.0331 308.494 69.2931 308.494 69.2241C308.494 68.8331 308.72 68.4651 309.105 68.3501C309.467 68.2121 309.874 68.3501 310.1 68.6491C311.684 70.7881 316.615 76.3771 320.234 76.6761C320.573 76.6991 320.867 76.9291 320.98 77.2281C321.116 77.5501 321.048 77.9181 320.822 78.1711C320.777 78.2171 316.728 83.1161 317.452 90.3611C317.497 90.7751 317.248 91.1661 316.886 91.3041C316.796 91.3501 316.705 91.3731 316.592 91.3731ZM307.454 82.0121C310.666 82.6331 313.787 85.6461 315.619 87.7851C315.8 83.2541 317.542 79.8731 318.628 78.1711C315.393 77.1361 312.068 73.7551 310.213 71.6161C310.032 74.3301 309.421 78.7461 307.454 82.0121Z" fill="#000200"/>
<path d="M189.014 223.301C184.739 227.441 183.472 232.731 183.925 236.273C183.925 236.273 179.016 229.12 172.705 227.533C174.311 225.187 178.541 221.714 177.5 210.329C177.478 210.329 182.477 223.301 189.014 223.301Z" fill="white"/>
<path d="M83.6494 218.517C80.6183 221.622 77.5646 224.704 74.5335 227.809C73.7192 228.637 74.9859 229.925 75.8003 229.097C78.8314 225.992 81.8851 222.91 84.9162 219.805C85.7305 218.977 84.4638 217.689 83.6494 218.517Z" fill="#F674B4"/>
<path d="M106.835 105.541C104.166 103.057 101.497 100.573 98.8502 98.0891C98.0132 97.3071 96.7239 98.5721 97.5835 99.3771C100.253 101.861 102.922 104.345 105.568 106.829C106.428 107.611 107.695 106.323 106.835 105.541Z" fill="#F674B4"/>
<path d="M198.605 231.719L198.899 240.85L206.658 236.296L198.605 231.719Z" fill="#FF3857"/>
<path d="M226.36 220.656C205.278 220.656 188.109 202.877 188.109 181.027C188.109 159.591 205.278 142.134 226.36 142.134C247.442 142.134 264.611 159.568 264.611 181.027C264.611 207.316 251.74 220.656 226.36 220.656ZM226.36 143.951C206.251 143.951 189.896 160.58 189.896 181.027C189.896 201.888 206.251 218.839 226.36 218.839C250.88 218.839 262.824 206.465 262.824 181.027C262.801 160.58 246.447 143.951 226.36 143.951Z" fill="#000200"/>
<path d="M232.581 199.795C232.151 199.795 231.789 199.496 231.699 199.059L224.732 160.281L213.942 169.067C213.557 169.389 212.992 169.32 212.675 168.929C212.358 168.538 212.426 167.963 212.811 167.641L224.777 157.889C225.026 157.682 225.365 157.636 225.659 157.751C225.953 157.866 226.179 158.119 226.224 158.441L233.463 198.714C233.553 199.197 233.237 199.68 232.739 199.772C232.671 199.795 232.626 199.795 232.581 199.795Z" fill="#000200"/>
<path d="M225.32 201.75C224.935 201.75 224.55 201.474 224.46 201.083C224.324 200.6 224.618 200.094 225.093 199.979L239.57 196.092C240.045 195.954 240.543 196.253 240.656 196.736C240.792 197.219 240.498 197.725 240.023 197.84L225.546 201.727C225.478 201.75 225.41 201.75 225.32 201.75Z" fill="#000200"/>
<path d="M308.245 202.118C307.815 202.118 307.431 201.796 307.363 201.359L295.487 130.128C295.397 129.622 295.736 129.162 296.211 129.07C296.686 128.978 297.161 129.323 297.252 129.806L309.127 201.037C309.218 201.543 308.879 202.003 308.404 202.095C308.336 202.118 308.29 202.118 308.245 202.118Z" fill="#000200"/>
<path d="M295.578 119.755L291.597 95.9039C291.551 95.6739 291.416 95.4439 291.235 95.3059C291.031 95.1679 290.805 95.1219 290.556 95.1679L127.646 125.781C127.397 125.827 127.193 125.965 127.058 126.172C126.922 126.379 126.877 126.632 126.944 126.885L143.073 193.24C143.073 193.263 143.095 193.286 143.095 193.309C143.661 193.286 144.226 193.263 144.792 193.24C144.837 193.102 144.837 192.941 144.792 192.803L128.89 127.391L289.991 97.1229L293.813 120.077C293.904 120.56 294.356 120.905 294.854 120.813C295.352 120.721 295.668 120.261 295.578 119.755Z" fill="#000200"/>
<path d="M162.639 270.911C162.232 270.911 161.87 270.635 161.779 270.221L146.828 208.719C146.714 208.236 147.008 207.73 147.484 207.615C147.959 207.5 148.456 207.799 148.569 208.282L163.318 268.91L256.694 246.393C257.169 246.255 257.666 246.577 257.779 247.06C257.892 247.543 257.598 248.049 257.123 248.164L162.888 270.888C162.775 270.911 162.707 270.911 162.639 270.911Z" fill="#000200"/>
<path d="M262.53 234.272C262.326 234.042 262.032 233.927 261.715 233.996L172.818 250.51L158.273 196.253C158.138 195.77 157.663 195.494 157.165 195.609C156.69 195.747 156.396 196.253 156.532 196.736L171.28 251.798C171.393 252.189 171.755 252.465 172.14 252.465C172.185 252.465 172.253 252.465 172.298 252.442L261.557 235.859C261.896 235.33 262.236 234.824 262.53 234.272Z" fill="#000200"/>
<path d="M154.089 184.937C153.704 184.937 153.342 184.661 153.229 184.27L140.878 138.201C140.811 137.948 140.856 137.695 140.992 137.465C141.127 137.258 141.354 137.097 141.602 137.051L280.332 112.487C280.829 112.395 281.282 112.717 281.372 113.223L282.119 117.409C282.209 117.892 281.893 118.375 281.395 118.467C280.92 118.559 280.445 118.237 280.354 117.731L279.766 114.442L142.869 138.684L154.948 183.787C155.084 184.27 154.79 184.776 154.315 184.914C154.247 184.937 154.157 184.937 154.089 184.937Z" fill="#000200"/>
<path d="M296.279 202.095C295.849 202.095 295.487 201.796 295.397 201.359L281.757 125.597C281.666 125.114 281.983 124.631 282.481 124.539C282.956 124.47 283.431 124.769 283.521 125.275L297.161 201.037C297.252 201.52 296.935 202.003 296.437 202.095C296.369 202.072 296.324 202.095 296.279 202.095Z" fill="#000200"/>
<path d="M141.738 138.868C141.534 138.868 141.353 138.799 141.172 138.661L127.238 127.391C126.854 127.069 126.786 126.494 127.103 126.103C127.419 125.712 127.962 125.643 128.369 125.965L142.304 137.235C142.688 137.557 142.756 138.132 142.439 138.523C142.258 138.753 142.009 138.868 141.738 138.868Z" fill="#000200"/>
<path d="M280.468 114.281C280.309 114.281 280.151 114.235 280.015 114.143C279.585 113.89 279.45 113.315 279.721 112.901L289.991 95.5819C290.24 95.1449 290.782 95.0069 291.212 95.2599C291.642 95.5129 291.778 96.0879 291.506 96.5019L281.237 113.821C281.056 114.143 280.762 114.281 280.468 114.281Z" fill="#000200"/>
<path d="M162.277 269.393C162.119 269.393 161.961 269.347 161.825 269.255C161.395 269.002 161.259 268.45 161.508 268.013L171.416 251.085C171.665 250.648 172.207 250.51 172.637 250.763C173.067 251.016 173.203 251.568 172.954 252.005L163.046 268.933C162.888 269.232 162.571 269.393 162.277 269.393Z" fill="#000200"/>
<path d="M204.215 151.334C204.011 151.334 203.785 151.265 203.627 151.104L181.844 131.416C181.482 131.071 181.436 130.496 181.776 130.128C182.115 129.76 182.658 129.714 183.042 130.059L204.826 149.747C205.188 150.092 205.233 150.667 204.893 151.035C204.713 151.242 204.464 151.334 204.215 151.334Z" fill="#000200"/>
<path d="M195.619 160.35C195.438 160.35 195.257 160.281 195.076 160.166L161.734 135.05C161.327 134.751 161.259 134.176 161.553 133.785C161.847 133.394 162.413 133.302 162.797 133.601L196.14 158.717C196.547 159.016 196.615 159.591 196.32 159.982C196.162 160.212 195.891 160.35 195.619 160.35Z" fill="#000200"/>
<path d="M235.272 145.032C235.182 145.032 235.114 145.009 235.024 144.986C234.549 144.848 234.277 144.342 234.413 143.859L241.403 119.87C241.538 119.387 242.036 119.111 242.511 119.249C242.986 119.387 243.257 119.893 243.122 120.376L236.132 144.365C235.996 144.779 235.657 145.032 235.272 145.032Z" fill="#000200"/>
<path d="M248.505 151.334C248.415 151.334 248.302 151.311 248.211 151.288C247.736 151.127 247.51 150.598 247.668 150.138L259.182 116.719C259.34 116.236 259.861 115.983 260.313 116.167C260.788 116.328 261.014 116.857 260.856 117.317L249.342 150.736C249.206 151.104 248.867 151.334 248.505 151.334Z" fill="#000200"/>
<path d="M188.992 116.075C188.788 116.075 188.562 116.006 188.403 115.845C188.041 115.5 188.019 114.925 188.336 114.557L207.812 92.592C208.06 92.316 208.468 92.224 208.807 92.362L239.095 104.966C239.548 105.15 239.774 105.679 239.593 106.162C239.412 106.622 238.869 106.852 238.417 106.668L208.716 94.294L189.67 115.776C189.489 115.983 189.24 116.075 188.992 116.075Z" fill="#000200"/>
<path d="M272.324 240.62C271.171 241.494 269.406 242.368 268.139 241.241C267.235 240.436 265.9 241.793 266.805 242.598C268.75 244.323 271.351 243.702 273.274 242.276C274.247 241.563 273.297 239.907 272.324 240.62Z" fill="#000200"/>
<path d="M277.911 219.782L277.029 221.484C275.898 223.669 272.55 221.875 273.681 219.69L274.564 217.988C275.695 215.803 279.042 217.597 277.911 219.782Z" fill="#000200"/>
<path d="M279.902 208.098C280.739 208.903 281.44 209.892 282.322 210.628C283.25 211.41 282.232 213.02 281.304 212.238C280.286 211.387 279.472 210.329 278.499 209.386C277.64 208.535 279.02 207.247 279.902 208.098Z" fill="#000200"/>
<path d="M371.717 268.473C366.266 258.353 354.548 253.661 343.691 255.961C341.972 251.89 338.488 249.314 334.484 248.187C339.913 238.251 343.08 224.957 328.422 209.064C325.233 204.671 320.121 200.623 313.086 196.851C296.415 187.904 284.788 190.089 277.549 203.544C275.83 206.718 274.315 209.524 272.89 212.123C270.763 216.01 268.909 219.414 266.986 223.071C265.312 222.519 261.534 221.576 259.883 223.761C259.204 224.658 258.978 225.716 259.204 226.797C259.544 228.338 260.81 229.879 262.665 231.052C255.472 245.312 252.532 254.581 257.282 262.24C260.041 266.679 265.335 269.853 269.791 271.877L273.184 281.836C273.319 282.204 273.659 282.434 274.021 282.434C274.111 282.434 274.224 282.411 274.315 282.388C274.79 282.227 275.016 281.698 274.858 281.215L274.45 280.042C278.296 278.294 278.341 273.924 278.341 273.717C278.341 273.303 278.07 272.935 277.685 272.843C277.549 272.797 263.593 269.002 258.797 261.251C254.907 254.972 256.377 247.359 264.656 231.098C264.656 231.075 264.679 231.052 264.679 231.029C264.701 230.983 264.701 230.96 264.724 230.914C264.724 230.891 264.724 230.868 264.724 230.845C264.724 230.799 264.746 230.776 264.746 230.73C264.746 230.707 264.746 230.684 264.746 230.661C264.746 230.615 264.746 230.592 264.746 230.546C264.746 230.523 264.746 230.5 264.724 230.477C264.724 230.431 264.701 230.408 264.701 230.362C264.701 230.339 264.679 230.316 264.679 230.293C264.656 230.27 264.656 230.224 264.633 230.201C264.611 230.178 264.611 230.155 264.588 230.132C264.565 230.109 264.543 230.086 264.543 230.04C264.52 230.017 264.498 229.994 264.498 229.994C264.475 229.971 264.452 229.948 264.43 229.925C264.407 229.902 264.384 229.902 264.362 229.879C264.339 229.856 264.317 229.833 264.271 229.833C262.507 228.89 261.218 227.51 260.946 226.337C260.833 225.785 260.946 225.279 261.286 224.796C262.213 223.554 265.583 224.382 267.054 224.98C267.054 224.98 267.076 224.98 267.099 224.98C267.144 225.003 267.167 225.003 267.212 225.003C267.235 225.003 267.257 225.003 267.28 225.003C267.325 225.003 267.37 225.003 267.393 225.003C267.416 225.003 267.438 225.003 267.438 225.003C267.483 225.003 267.529 225.003 267.551 224.98C267.574 224.98 267.597 224.98 267.597 224.98C267.642 224.98 267.664 224.957 267.71 224.934C267.732 224.934 267.755 224.911 267.755 224.911C267.777 224.888 267.823 224.888 267.845 224.865C267.868 224.842 267.891 224.842 267.891 224.819C267.913 224.796 267.936 224.773 267.981 224.75C268.004 224.727 268.026 224.727 268.026 224.704C268.049 224.681 268.072 224.658 268.094 224.635C268.117 224.612 268.117 224.589 268.139 224.566C268.139 224.543 268.162 224.543 268.162 224.52C270.198 220.61 272.166 217.045 274.405 212.905C275.83 210.283 277.368 207.5 279.065 204.326C281.915 199.059 285.512 195.678 289.9 194.16C284.969 211.571 297.5 230.684 297.953 230.891C303.042 233.283 306.187 235.951 307.069 238.619C307.499 239.907 307.408 241.172 306.775 242.391C306.39 243.127 305.463 244.461 303.563 245.013C301.459 245.634 298.858 245.059 296.007 243.403C295.713 243.219 294.944 242.805 294.243 243.794C287.57 253.201 294.469 264.172 304.015 267.369C299.084 271.302 295.148 276.615 295.08 283.147C295.012 289.978 299.242 296.464 305.893 297.798C304.264 310.31 318.922 313.645 328.445 313.208C341.768 312.587 356.335 310.402 366.379 300.627C375.042 292.347 377.553 279.283 371.717 268.473Z" fill="#000200"/>
<path d="M238.756 373.744C238.371 373.744 238.032 373.491 237.896 373.1L229.844 347.432C229.685 346.949 229.957 346.443 230.432 346.282C230.907 346.144 231.404 346.397 231.563 346.88L239.616 372.548C239.774 373.031 239.502 373.537 239.027 373.698C238.937 373.721 238.847 373.744 238.756 373.744Z" fill="#000200"/>
<path d="M257.078 373.744C256.694 373.744 256.355 373.491 256.219 373.1L247.623 345.201C247.465 344.718 247.736 344.212 248.211 344.051C248.686 343.89 249.184 344.166 249.342 344.649L257.938 372.548C258.096 373.031 257.825 373.537 257.35 373.698C257.259 373.744 257.169 373.744 257.078 373.744Z" fill="#000200"/>
<path d="M361.719 359.806C361.335 359.806 360.973 359.53 360.86 359.139L347.197 308.378C347.061 307.895 347.355 307.389 347.83 307.251C348.305 307.136 348.803 307.412 348.939 307.895L362.601 358.656C362.737 359.139 362.443 359.645 361.968 359.783C361.878 359.783 361.81 359.806 361.719 359.806Z" fill="#000200"/>
<path d="M181.436 298.35C171.959 298.35 162.752 296.993 155.717 293.405C149.542 290.254 145.425 285.654 143.502 279.72C135.427 254.926 139.815 215.941 145.561 209.524C146.353 208.627 147.167 207.753 147.981 206.902C152.437 202.118 156.645 197.61 159.517 188.525C160.988 183.856 160.4 181.28 159.223 180.843C158.206 180.475 156.509 181.579 155.627 183.833C155.288 184.707 154.993 185.489 154.722 186.225C153.003 190.802 152.211 192.895 147.823 193.378C147.257 193.447 143.005 194.298 141.738 193.194C140.042 191.699 139.499 187.812 139.883 179.831C139.906 179.325 140.336 178.934 140.811 178.957C141.308 178.98 141.693 179.417 141.67 179.9C141.331 186.869 141.738 190.779 142.914 191.791C143.48 192.297 147.009 191.63 147.642 191.561C150.944 191.193 151.397 189.997 153.071 185.581C153.342 184.845 153.636 184.063 153.998 183.166C155.22 180.084 157.731 178.359 159.857 179.141C160.807 179.486 163.725 181.234 161.259 189.1C158.251 198.576 153.704 203.452 149.316 208.19C148.524 209.041 147.71 209.892 146.918 210.789C142.145 216.125 137.078 254.121 145.244 279.168C147.031 284.619 150.831 288.874 156.577 291.795C173.632 300.489 203.898 295.636 218.941 290.53C228.667 287.241 243.484 285.286 259.159 283.239C275.717 281.054 292.863 278.823 303.947 274.821C304.422 274.66 304.92 274.913 305.078 275.373C305.237 275.856 305.01 276.362 304.535 276.546C293.271 280.594 276.034 282.848 259.386 285.056C243.8 287.103 229.075 289.035 219.506 292.278C210.277 295.337 195.551 298.35 181.436 298.35Z" fill="#000200"/>
<path d="M248.008 285.539C247.284 285.631 246.56 285.677 245.836 285.677C245.859 285.7 245.859 285.723 245.881 285.746C256.241 298.511 261.105 312.173 259.544 324.202C258.481 332.367 254.454 339.428 248.166 344.051C165.24 355.574 137.779 344.603 113.599 318.82C89.3497 292.991 95.2762 234.939 113.169 193.424C115.476 188.065 120.113 185.466 120.158 185.443C120.588 185.213 121.697 183.81 121.47 183.373C121.244 182.936 119.751 183.603 119.321 183.833C119.118 183.948 114.096 186.731 111.54 192.688C93.4214 234.732 87.5401 293.681 112.309 320.062C130.36 339.267 150.107 350.422 192.339 350.422C207.766 350.422 226.202 348.927 248.641 345.799C248.777 345.776 248.912 345.73 249.048 345.638C255.857 340.716 260.222 333.172 261.353 324.409C262.892 312.219 258.164 298.442 248.008 285.539Z" fill="#000200"/>
<path d="M218.036 349.318C217.945 349.318 217.855 349.295 217.764 349.272C217.289 349.111 217.041 348.605 217.176 348.122C222.469 331.332 218.692 307.366 208.739 294.647C208.422 294.256 208.49 293.681 208.875 293.359C209.259 293.037 209.825 293.106 210.141 293.497C220.592 306.86 224.437 331.079 218.895 348.651C218.76 349.065 218.398 349.318 218.036 349.318Z" fill="#000200"/>
<path d="M209.44 349.939C209.372 349.939 209.282 349.939 209.214 349.916C208.739 349.778 208.445 349.295 208.581 348.812C212.313 334.506 211.838 311.874 201.885 295.981C201.614 295.567 201.749 294.992 202.156 294.716C202.586 294.44 203.129 294.578 203.401 294.992C213.625 311.322 214.145 334.575 210.3 349.249C210.187 349.686 209.825 349.939 209.44 349.939Z" fill="#000200"/>
<path d="M132.396 197.863C131.943 197.863 131.536 197.495 131.514 197.012C131.468 196.299 130.27 179.555 136.106 168.653C136.332 168.216 137.35 166.376 137.779 166.606C138.209 166.859 137.915 169.067 137.666 169.527C132.079 179.946 133.278 196.69 133.278 196.874C133.323 197.38 132.939 197.817 132.464 197.84C132.441 197.863 132.418 197.863 132.396 197.863Z" fill="#000200"/>
<path d="M123.031 199.795C123.009 199.795 123.009 199.795 122.986 199.795C122.488 199.772 122.104 199.335 122.126 198.852C123.031 179.739 127.306 175.553 134.228 170.355C134.613 170.056 136.535 169.09 136.829 169.481C137.124 169.895 135.698 171.505 135.291 171.804C128.596 176.841 124.773 180.59 123.913 198.944C123.891 199.427 123.506 199.795 123.031 199.795Z" fill="#000200"/>
<path d="M115.906 201.75C115.883 201.75 115.883 201.75 115.861 201.75C115.363 201.727 114.978 201.29 115.024 200.784C115.657 188.893 118.801 182.706 126.605 177.968C127.035 177.715 127.578 177.853 127.827 178.29C128.076 178.727 127.94 179.279 127.51 179.532C120.204 183.948 117.399 189.56 116.811 200.899C116.765 201.382 116.381 201.75 115.906 201.75Z" fill="#000200"/>
<path d="M312.52 141.49C305.689 141.49 302.929 138.155 300.237 134.912C298.699 133.049 297.093 131.14 294.673 129.737C292.004 128.219 288.136 127.437 284.381 126.678C278.432 125.482 272.822 124.355 272.573 120.192C272.482 118.812 272.528 117.432 273.455 116.604C274.812 115.385 277.165 115.845 282.91 116.949C286.145 117.57 290.601 118.421 296.415 119.249C296.912 119.318 297.252 119.778 297.184 120.284C297.116 120.79 296.663 121.112 296.166 121.066C290.307 120.238 285.851 119.387 282.594 118.766C278.228 117.938 275.355 117.386 274.654 118.007C274.383 118.26 274.292 118.95 274.36 120.123C274.541 122.906 279.495 123.895 284.743 124.953C288.633 125.735 292.66 126.54 295.578 128.219C298.292 129.76 299.989 131.807 301.64 133.808C304.309 137.028 306.639 139.811 312.814 139.719C312.814 139.719 312.814 139.719 312.837 139.719C313.335 139.719 313.719 140.11 313.742 140.616C313.742 141.122 313.357 141.536 312.859 141.536C312.724 141.49 312.611 141.49 312.52 141.49Z" fill="#000200"/>
<path d="M367.532 277.627C367.329 277.627 367.103 277.558 366.944 277.397C366.582 277.052 366.537 276.5 366.876 276.109C392.867 246.324 394.405 191.4 386.579 171.413C371.943 134.015 331.001 118.26 292.886 107.795C292.411 107.657 292.117 107.174 292.253 106.668C292.388 106.185 292.886 105.886 293.338 106.024C331.883 116.627 373.301 132.612 388.23 170.746C396.192 191.101 394.631 247.014 368.211 277.328C368.03 277.512 367.781 277.627 367.532 277.627Z" fill="#000200"/>
<path d="M335.005 244.576C334.801 244.576 334.575 244.507 334.417 244.346C334.055 244.024 334.009 243.449 334.326 243.058C344.844 230.891 350.5 206.304 347.174 187.076C344.008 168.768 327.336 155.152 298.971 147.723C298.496 147.608 298.202 147.102 298.337 146.619C298.473 146.136 298.948 145.837 299.423 145.975C328.535 153.588 345.659 167.687 348.939 186.777C352.332 206.488 346.518 231.742 335.661 244.254C335.502 244.484 335.254 244.576 335.005 244.576Z" fill="#000200"/>
<path d="M379.725 258.606C379.702 258.606 379.679 258.606 379.657 258.606C379.159 258.56 378.797 258.123 378.842 257.617C379.498 249.751 366.967 236.02 342.605 231.811C342.107 231.719 341.791 231.259 341.881 230.753C341.972 230.247 342.424 229.925 342.922 230.017C368.641 234.479 381.353 248.992 380.629 257.778C380.584 258.238 380.2 258.606 379.725 258.606Z" fill="#000200"/>
<path d="M375.766 265.115C375.336 265.115 374.975 264.816 374.884 264.379C372.894 253.822 360.973 245.22 339.461 238.826C338.986 238.688 338.714 238.182 338.85 237.699C338.986 237.216 339.483 236.94 339.959 237.078C362.172 243.679 374.5 252.741 376.648 264.034C376.739 264.517 376.422 265 375.947 265.092C375.879 265.115 375.811 265.115 375.766 265.115Z" fill="#000200"/>
</svg>
