<svg width="488" height="461" viewBox="0 0 488 461" fill="none" xmlns="http://www.w3.org/2000/svg">
<rect width="488" height="460" transform="translate(0 0.5)" fill="white"/>
<path d="M354.294 139.995L301.079 161.178C306.69 178.543 318.281 193.631 335.161 202.348C343.647 206.741 352.915 209.064 362.182 209.34L354.294 139.995Z" fill="#F6C8E2"/>
<path d="M63.0583 225.808L69.3595 222.036L75.0398 229.603L69.0375 233.375L63.0583 225.808Z" fill="#FFCB56"/>
<path d="M139.11 324.662L171.053 224.819L200.121 220.61L213.092 325.697L198.512 325.398L194.74 283.285L161.555 283.584L151.229 325.697L139.11 324.662Z" fill="#FFCB56"/>
<path d="M282.29 258.192L285.211 265.368C285.211 265.368 301.769 260.676 305.77 265.598C309.174 269.807 309.749 277.052 309.749 277.052C309.749 277.052 290.04 278.8 289.212 297.453C288.385 316.106 303.218 302.812 313.98 298.258L315.728 302.007L326.1 299.523C326.1 299.523 321.546 281.284 318.626 268.013C315.728 254.742 302.206 249.061 282.29 258.192Z" fill="#A0DDE2"/>
<path d="M390.492 153.565C387.41 149.379 384.306 145.17 381.224 140.984C380.534 140.041 378.924 140.961 379.637 141.927C382.719 146.113 385.824 150.322 388.905 154.508C389.595 155.451 391.205 154.531 390.492 153.565Z" fill="#FF3857"/>
<path d="M390.722 141.973L378.74 151.15C377.821 151.863 378.717 153.473 379.683 152.737C383.685 149.678 387.663 146.619 391.665 143.56C392.585 142.847 391.665 141.237 390.722 141.973Z" fill="#FF3857"/>
<path d="M347.694 89.671L339.484 102.965C338.863 103.977 340.45 104.897 341.071 103.908C343.808 99.469 346.544 95.053 349.281 90.614C349.925 89.579 348.315 88.659 347.694 89.671Z" fill="#F6C8E2"/>
<path d="M87.7342 167.848C87.7112 167.848 87.6652 167.848 87.6422 167.848C87.3893 167.825 87.1593 167.687 86.9983 167.503L67.8647 142.87C67.7037 142.686 67.6577 142.433 67.6807 142.18C67.7037 141.927 67.8417 141.72 68.0256 141.559L111.766 107.542C111.95 107.381 112.203 107.312 112.456 107.358C112.709 107.381 112.916 107.519 113.077 107.703L130.831 130.542C131.13 130.933 131.084 131.485 130.693 131.807L88.3322 167.618C88.1712 167.756 87.9412 167.848 87.7342 167.848ZM69.8884 142.456L87.8722 165.594L128.807 130.979L112.157 109.566L69.8884 142.456Z" fill="#000200"/>
<path d="M138.374 105.265C138.19 105.035 137.868 104.92 137.569 104.92L112.226 107.358C111.881 107.381 111.605 107.611 111.467 107.91C111.329 108.209 111.375 108.577 111.582 108.853L129.336 131.692C129.52 131.922 129.773 132.06 130.072 132.06C130.118 132.06 130.187 132.06 130.233 132.037C130.578 131.968 130.854 131.738 130.946 131.393L138.558 106.139C138.65 105.817 138.581 105.518 138.374 105.265ZM129.704 129.139L114.066 109.037L124.99 108.002L132.97 118.26L129.704 129.139Z" fill="#000200"/>
<path d="M83.7327 162.696C83.4798 162.696 83.2268 162.581 83.0428 162.374C82.6979 161.983 82.7439 161.408 83.1348 161.063L123.817 125.643C124.208 125.298 124.783 125.344 125.128 125.735C125.473 126.126 125.427 126.701 125.036 127.046L84.3537 162.466C84.1697 162.627 83.9397 162.696 83.7327 162.696Z" fill="#000200"/>
<path d="M75.0398 151.518C74.7638 151.518 74.4878 151.403 74.3039 151.15C73.9819 150.759 74.0739 150.161 74.4648 149.862L118.205 115.845C118.619 115.523 119.194 115.615 119.493 116.006C119.815 116.397 119.723 116.995 119.332 117.294L75.5917 151.311C75.4307 151.449 75.2237 151.518 75.0398 151.518Z" fill="#000200"/>
<path d="M80.0302 170.608C79.5472 170.608 79.0643 170.585 78.5813 170.539C75.0398 170.148 71.8892 168.423 69.6814 165.617L65.496 160.327C63.3112 157.567 62.3223 154.094 62.7593 150.598C63.1732 147.079 64.944 143.951 67.7497 141.789L68.0256 141.582C68.4396 141.26 69.0145 141.329 69.3135 141.743C69.6354 142.134 69.5435 142.732 69.1525 143.031L68.8765 143.238C66.4848 145.101 64.967 147.792 64.5991 150.805C64.2311 153.818 65.082 156.785 66.9678 159.177L71.1533 164.467C73.039 166.859 75.7527 168.354 78.7883 168.699C81.8239 169.021 84.7906 168.147 87.1593 166.215C87.5502 165.893 88.1252 165.939 88.4701 166.353C88.7921 166.744 88.7231 167.319 88.3321 167.641C85.9404 169.573 83.0428 170.608 80.0302 170.608Z" fill="#000200"/>
<path d="M250.968 369.719C250.922 369.719 250.899 369.719 250.853 369.719L126.162 354.148C125.726 354.102 125.381 353.734 125.358 353.297L120.804 296.947C120.758 296.441 121.149 296.004 121.655 295.958C122.161 295.912 122.207 293.428 122.253 293.934L127.151 352.4L250.002 367.741L241.792 195.149L113.008 177.876L119.148 253.661C119.194 254.167 118.803 254.604 118.297 254.65C117.792 254.673 117.355 254.305 117.309 253.799L111.076 176.864C111.053 176.588 111.168 176.312 111.352 176.128C111.559 175.944 111.835 175.852 112.111 175.875L242.781 193.401C243.218 193.47 243.563 193.838 243.586 194.275L251.888 368.73C251.911 369.006 251.796 369.259 251.589 369.443C251.428 369.627 251.198 369.719 250.968 369.719Z" fill="#000200"/>
<path d="M250.968 369.719C250.531 369.719 250.14 369.397 250.071 368.96C249.979 368.477 250.278 368.017 250.761 367.902L372.324 338.255L359.492 225.394C359.423 224.888 359.791 224.428 360.297 224.382C360.826 224.336 361.263 224.681 361.309 225.187L374.233 338.853C374.279 339.313 373.98 339.75 373.543 339.865L361.608 342.786L361.884 356.678C361.884 357.161 361.539 357.552 361.056 357.621L251.083 369.742C251.037 369.719 251.014 369.719 250.968 369.719ZM359.768 343.2L265.042 366.315L360.044 355.85L359.768 343.2Z" fill="#000200"/>
<path d="M156.749 322.362C156.726 322.362 156.703 322.362 156.68 322.362L144.56 321.327C144.284 321.304 144.031 321.143 143.87 320.913C143.709 320.683 143.663 320.384 143.755 320.108L175.721 220.265C175.836 219.92 176.112 219.69 176.457 219.621L205.526 215.412C205.779 215.389 206.032 215.435 206.216 215.596C206.423 215.757 206.538 215.964 206.561 216.217L219.554 321.304C219.577 321.58 219.508 321.833 219.324 322.04C219.14 322.247 218.887 322.339 218.611 322.339L204.008 322.04C203.548 322.04 203.157 321.672 203.111 321.189L199.431 279.927L167.81 280.203L157.646 321.626C157.531 322.086 157.163 322.362 156.749 322.362ZM204.882 320.246L217.576 320.499L204.836 217.39L177.285 221.392L145.848 319.579L156.036 320.453L166.201 279.099C166.293 278.685 166.661 278.409 167.097 278.386L200.282 278.087C200.765 278.087 201.156 278.455 201.202 278.938L204.882 320.246Z" fill="#000200"/>
<path d="M299.676 303.801C298.618 303.801 297.652 303.571 296.801 303.042C294.548 301.662 293.582 298.419 293.812 293.175C294.571 276.316 310.232 272.682 314.256 272.015C313.98 270.014 313.106 265.023 310.6 261.941C307.633 258.284 295.445 260.745 291.006 262.01C290.546 262.148 290.063 261.895 289.902 261.458L286.982 254.282C286.798 253.822 287.005 253.293 287.442 253.086C298.48 248.026 308.438 247.175 315.521 250.694C320.466 253.178 323.777 257.617 325.088 263.551C327.963 276.661 332.493 294.854 332.539 295.038C332.608 295.268 332.562 295.521 332.424 295.751C332.286 295.958 332.079 296.119 331.849 296.165L321.477 298.649C321.041 298.741 320.604 298.534 320.42 298.143L319.04 295.199C316.947 296.142 314.693 297.407 312.509 298.603C307.748 301.271 303.195 303.801 299.676 303.801ZM303.77 258.146C307.219 258.146 310.416 258.79 312.026 260.768C315.567 265.138 316.165 272.429 316.188 272.728C316.234 273.234 315.843 273.671 315.36 273.717C314.578 273.786 296.457 275.626 295.675 293.244C295.468 297.706 296.181 300.466 297.79 301.478C300.527 303.18 306.184 300.052 311.658 297.016C314.164 295.613 316.786 294.187 319.178 293.152C319.638 292.968 320.167 293.152 320.374 293.612L321.822 296.694L330.561 294.601C329.595 290.76 325.824 275.419 323.317 263.965C322.144 258.606 319.178 254.581 314.739 252.373C308.369 249.199 299.262 249.912 289.074 254.42L291.351 260.009C293.444 259.434 298.871 258.146 303.77 258.146Z" fill="#000200"/>
<path d="M268.538 322.362C268.354 322.362 268.17 322.316 268.009 322.201C267.779 322.04 267.641 321.81 267.618 321.534L259.477 249.429C259.431 248.992 259.684 248.578 260.121 248.44L276.426 243.242C276.909 243.081 277.438 243.357 277.576 243.84C277.737 244.323 277.461 244.852 276.978 244.99L261.409 249.958L269.343 320.246L285.234 315.876C285.717 315.738 286.223 316.037 286.361 316.52C286.499 317.003 286.2 317.509 285.717 317.647L268.791 322.316C268.699 322.362 268.607 322.362 268.538 322.362Z" fill="#A0DDE2"/>
<path d="M345.671 297.752C345.234 297.752 344.866 297.453 344.774 297.016C344.659 296.51 344.981 296.027 345.487 295.912L355.191 293.819L349.281 244.231C349.212 243.725 349.58 243.265 350.086 243.196C350.592 243.127 351.052 243.495 351.121 244.001L357.146 294.44C357.192 294.923 356.893 295.36 356.433 295.452L345.901 297.706C345.809 297.752 345.74 297.752 345.671 297.752Z" fill="#A0DDE2"/>
<path d="M281.692 332.758C281.278 332.758 280.91 332.482 280.795 332.068C280.68 331.585 280.956 331.079 281.462 330.941L350.707 313.254C351.213 313.116 351.696 313.415 351.834 313.921C351.949 314.404 351.673 314.91 351.167 315.048L281.922 332.735C281.853 332.735 281.784 332.758 281.692 332.758Z" fill="#F6C8E2"/>
<path d="M223.234 354.217C222.935 354.217 222.636 354.079 222.475 353.803C222.199 353.389 222.314 352.814 222.728 352.515L234.709 344.488L222.59 332.482C222.222 332.114 222.222 331.539 222.59 331.171C222.958 330.803 223.533 330.803 223.9 331.171L236.825 343.959C237.032 344.143 237.124 344.419 237.101 344.695C237.078 344.971 236.917 345.224 236.687 345.362L223.762 354.01C223.601 354.148 223.418 354.217 223.234 354.217Z" fill="#A0DDE2"/>
<path d="M239.194 193.723C239.171 193.263 238.849 192.895 238.389 192.826L220.75 190.457C220.474 190.411 220.198 190.503 220.014 190.687C219.807 190.871 219.692 191.147 219.715 191.4L222.314 252.074C222.337 252.442 222.567 252.764 222.912 252.902C223.027 252.948 223.119 252.971 223.234 252.971C223.487 252.971 223.739 252.879 223.9 252.672L234.042 241.862L239.148 249.82C239.378 250.165 239.792 250.326 240.205 250.211C240.596 250.096 240.872 249.728 240.849 249.291L239.194 193.723Z" fill="#000200"/>
<path d="M304 295.475C303.08 295.475 302.252 295.268 301.608 294.762C300.665 294.026 300.251 293.037 300.366 291.887C300.803 287.793 308.507 282.365 315.935 278.8C316.188 278.685 316.464 278.685 316.717 278.8C316.97 278.915 317.154 279.145 317.223 279.398L319.201 286.873C319.293 287.218 319.178 287.609 318.879 287.839C317.062 289.288 308.967 295.475 304 295.475ZM315.751 280.962C308.254 284.711 302.505 289.403 302.229 292.094C302.183 292.6 302.344 292.968 302.781 293.313C304.897 294.946 312.371 290.599 317.292 286.781L315.751 280.962Z" fill="#000200"/>
<path d="M169.489 272.797C169.213 272.797 168.937 272.682 168.776 272.452C168.592 272.222 168.523 271.923 168.592 271.647L179.401 228.545C179.493 228.177 179.792 227.924 180.16 227.855L197.477 225.141C197.73 225.095 198.006 225.164 198.213 225.348C198.42 225.509 198.535 225.762 198.558 226.038L200.052 271.003C200.052 271.256 199.96 271.486 199.799 271.67C199.638 271.854 199.408 271.946 199.156 271.969L169.535 272.797C169.512 272.797 169.489 272.797 169.489 272.797ZM181.057 229.58L170.685 270.911L198.167 270.129L196.741 227.119L181.057 229.58Z" fill="#000200"/>
<path d="M242.689 195.264C242.321 195.264 241.976 195.034 241.838 194.689C241.654 194.206 241.884 193.677 242.344 193.493L351.604 150.023C351.88 149.908 352.179 149.931 352.409 150.092C352.662 150.23 352.823 150.483 352.846 150.782L356.249 180.659C356.318 181.165 355.95 181.625 355.444 181.671C354.938 181.717 354.478 181.372 354.432 180.866L351.167 152.185L243.034 195.218C242.919 195.241 242.804 195.264 242.689 195.264Z" fill="#000200"/>
<path d="M154.886 232.409C154.725 232.409 154.564 232.363 154.426 232.294L130.555 218.586C130.256 218.402 130.072 218.08 130.095 217.735C130.118 217.39 130.325 217.068 130.647 216.93L154.518 206.764C154.978 206.557 155.53 206.787 155.737 207.247C155.944 207.707 155.714 208.259 155.254 208.466L133.085 217.896L155.346 230.684C155.783 230.937 155.944 231.512 155.691 231.949C155.507 232.248 155.208 232.409 154.886 232.409Z" fill="#A0DDE2"/>
<path d="M243.701 188.732C243.195 188.732 242.781 188.318 242.781 187.812C242.781 187.306 243.195 186.892 243.701 186.892C246.277 186.892 248.346 186.202 249.358 185.006C249.956 184.316 250.163 183.442 249.979 182.407C249.565 179.946 244.345 178.842 242.551 178.658C242.091 178.612 241.723 178.221 241.723 177.738V165.801C241.723 165.295 242.137 164.881 242.643 164.881C243.149 164.881 243.563 165.295 243.563 165.801V176.91C245.748 177.255 251.175 178.474 251.773 182.085C252.026 183.649 251.681 185.075 250.738 186.179C249.404 187.812 246.829 188.732 243.701 188.732Z" fill="#000200"/>
<path d="M252.877 163.248V165.87C252.877 169.228 258.097 169.228 258.097 165.87V163.271C258.097 159.913 252.877 159.89 252.877 163.248Z" fill="#000200"/>
<path d="M218.013 163.248V165.87C218.013 169.228 223.234 169.228 223.234 165.87V163.271C223.234 159.913 218.013 159.89 218.013 163.248Z" fill="#000200"/>
<path d="M220.842 151.15C218.726 151.472 216.656 151.909 214.656 152.645C213.092 153.22 214.265 155.543 215.828 154.968C217.622 154.324 219.508 153.979 221.394 153.703C223.05 153.45 222.498 150.897 220.842 151.15Z" fill="#000200"/>
<path d="M259.224 151.679C257.637 151.472 256.005 151.541 254.441 151.219C252.808 150.874 251.98 153.335 253.613 153.68C255.407 154.048 257.223 154.025 259.04 154.278C260.719 154.508 260.88 151.886 259.224 151.679Z" fill="#000200"/>
<path d="M303.701 159.246C299.768 151.978 292.041 147.723 283.946 148.643C283.854 139.581 282.29 128.403 271.735 123.044C270.309 120.698 268.584 118.582 266.583 116.696C260.512 108.715 249.519 104.805 233.375 104.805C216.633 104.805 205.043 108.462 198.236 116.098C186.254 117.938 177.193 127.138 175.353 139.581C159.163 134.682 143.042 142.065 131.728 153.933C125.772 160.166 120.137 169.826 121.839 178.083L197.799 188.272C197.822 188.249 197.822 188.226 197.822 188.226C197.822 188.157 197.845 188.065 197.845 187.996C198.075 187.835 198.236 187.559 198.236 187.26C198.259 182.706 197.04 179.095 196.971 178.934C196.833 178.543 196.511 178.29 196.051 178.313C191.451 178.497 187.818 177.462 185.587 175.3C183.54 173.322 183.218 171.045 183.218 169.872C183.218 168.538 183.586 166.583 185.334 164.927C188.163 162.236 193.774 161.04 201.593 161.431C201.961 161.454 202.628 161.109 203.295 160.879C215.805 155.405 221.003 125.183 221.003 125.183C226.453 130.22 256.74 140.317 270.47 142.226C270.516 144.204 270.539 146.136 270.585 148.022C270.838 160.787 270.907 173.529 270.608 182.936C270.585 183.442 271.85 182.522 271.827 182.683C271.781 183.327 274.655 181.556 278.197 180.153L306.368 168.952C306.184 165.64 305.356 162.351 303.701 159.246Z" fill="#000200"/>
<path d="M219.968 174.587C218.197 174.587 216.403 174.173 214.748 173.345C210.355 171.16 207.825 166.675 207.779 161.063C207.779 160.557 208.193 160.143 208.699 160.143C209.205 160.143 209.619 160.557 209.619 161.063C209.642 165.962 211.804 169.826 215.552 171.689C218.749 173.276 222.544 173.046 225.165 171.068C228.178 168.814 229.305 164.743 228.408 159.614C228.316 159.108 228.661 158.625 229.144 158.533C229.65 158.464 230.133 158.786 230.225 159.269C231.628 167.158 228.362 170.953 226.292 172.517C224.498 173.897 222.268 174.587 219.968 174.587Z" fill="#000200"/>
<path d="M256.924 173.092C255.384 173.092 253.843 172.724 252.394 171.988C248.3 169.918 245.955 165.341 245.955 159.43C245.955 158.924 246.369 158.51 246.875 158.51C247.381 158.51 247.795 158.924 247.795 159.43C247.795 164.605 249.772 168.584 253.222 170.332C255.936 171.712 259.155 171.482 261.593 169.688C264.559 167.526 265.824 163.478 265.042 158.625C264.95 158.119 265.295 157.636 265.801 157.567C266.307 157.498 266.767 157.82 266.859 158.326C267.756 163.892 266.215 168.584 262.674 171.183C260.972 172.471 258.948 173.092 256.924 173.092Z" fill="#000200"/>
<path d="M229.673 165.479C229.351 165.479 229.029 165.295 228.868 164.996C228.615 164.559 228.776 163.984 229.236 163.731C229.627 163.524 238.895 158.533 247.312 162.535C247.772 162.742 247.979 163.294 247.749 163.754C247.519 164.214 246.99 164.421 246.507 164.191C238.964 160.603 230.202 165.295 230.133 165.341C229.972 165.456 229.811 165.479 229.673 165.479Z" fill="#000200"/>
<path d="M438.326 256.467C427.632 194.252 405.371 182.384 382.926 178.842C352.593 174.035 330.561 186.524 317.476 215.987C310.531 231.627 311.198 235.215 312.785 236.687C314.348 238.159 316.947 237.055 318.764 236.089C322.811 233.95 324.099 230.408 325.341 226.981C326.008 225.118 326.721 223.186 327.871 221.461C327.871 221.392 327.871 221.3 327.894 221.208C328.147 220.449 328.4 219.667 328.607 218.885C328.607 218.862 328.63 218.816 328.63 218.793C328.262 218.563 327.756 218.609 327.434 218.954C325.41 221.231 324.467 223.83 323.57 226.337C322.351 229.718 321.293 232.616 317.867 234.433C315.107 235.905 314.256 235.537 314.026 235.307C313.359 234.686 312.532 231.627 319.155 216.7C331.849 188.111 353.214 175.967 382.627 180.636C404.405 184.086 426 195.701 436.509 256.766C441.546 286.114 437.958 308.7 425.839 323.949C409.58 344.396 380.925 348.283 360.757 349.433C360.251 349.456 359.86 349.893 359.883 350.399C359.906 350.882 360.32 351.273 360.803 351.273C360.826 351.273 360.849 351.273 360.849 351.273C381.362 350.1 410.546 346.121 427.264 325.099C439.752 309.436 443.454 286.344 438.326 256.467Z" fill="#000200"/>
<path d="M335.161 233.421C335.092 233.421 335.023 233.421 334.954 233.398C329.894 232.248 326.974 230.316 326.008 227.464C324.467 222.933 327.779 216.309 337.46 204.579C337.782 204.188 338.357 204.119 338.771 204.464C339.162 204.786 339.208 205.361 338.886 205.775C329.802 216.769 326.468 223.094 327.756 226.889C328.492 229.074 330.998 230.615 335.368 231.627C335.874 231.742 336.173 232.225 336.058 232.731C335.943 233.122 335.575 233.421 335.161 233.421Z" fill="#000200"/>
<path d="M343.509 237.009C343.486 237.009 343.463 237.009 343.44 237.009C338.081 236.549 334.77 234.709 333.62 231.512C330.929 224.198 340.703 213.25 345.027 208.903C345.395 208.535 345.969 208.535 346.337 208.903C346.705 209.271 346.705 209.846 346.337 210.214C337.966 218.655 333.758 226.567 335.345 230.891C336.242 233.329 339.024 234.778 343.601 235.169C344.107 235.215 344.475 235.652 344.452 236.158C344.383 236.641 343.992 237.009 343.509 237.009Z" fill="#000200"/>
<path d="M369.381 303.778C369.243 303.778 369.174 303.778 369.174 303.778C368.668 303.755 368.277 303.318 368.3 302.812C368.323 302.306 368.783 301.915 369.266 301.938C369.956 301.984 385.985 302.49 387.456 279.582C388.974 256.168 384.421 236.457 374.67 224.106C373.359 222.427 371.381 221.415 369.243 221.3C367.081 221.185 364.965 222.013 363.447 223.554C359.63 227.441 356.916 229.856 355.352 230.707C354.432 231.213 353.903 231.719 353.834 232.133C353.742 232.754 354.57 233.674 355.329 234.502C355.996 235.215 356.663 235.974 357.054 236.802C357.675 238.136 357.077 239.769 355.605 240.896C353.49 242.483 349.465 243.012 345.073 239.263C337.943 233.168 342.543 225.831 350.155 213.71C350.431 213.273 351.006 213.158 351.42 213.411C351.857 213.687 351.972 214.262 351.719 214.676C343.624 227.556 340.588 232.961 346.268 237.837C349.833 240.896 352.915 240.597 354.478 239.401C355.237 238.826 355.605 238.067 355.375 237.561C355.122 236.986 354.524 236.342 353.972 235.744C352.938 234.617 351.765 233.352 352.018 231.834C352.179 230.799 352.984 229.902 354.455 229.074C355.421 228.545 357.537 226.912 362.136 222.243C364.022 220.311 366.667 219.299 369.335 219.437C372.002 219.575 374.463 220.863 376.119 222.956C386.169 235.675 390.837 255.846 389.296 279.697C387.801 303.042 371.427 303.778 369.381 303.778Z" fill="#000200"/>
<path d="M314.118 211.479C312.831 211.479 311.474 211.134 310.163 210.237C308.921 209.386 308.76 208.328 308.829 207.569C309.473 200.715 335.253 189.261 338.173 187.973C338.633 187.766 340.588 186.731 340.795 187.214C341.002 187.674 339.392 189.468 338.909 189.675C323.133 196.575 310.968 204.349 310.669 207.753C310.646 208.029 310.692 208.351 311.221 208.719C314.141 210.72 317.246 209.064 319.753 207.73C320.535 207.316 321.224 206.948 321.845 206.718C322.328 206.557 322.857 206.81 323.018 207.293C323.179 207.776 322.926 208.305 322.443 208.466C321.96 208.627 321.339 208.972 320.604 209.363C318.879 210.237 316.579 211.479 314.118 211.479Z" fill="#000200"/>
<path d="M400.588 244.622C394.723 244.622 388.974 243.357 384.306 240.758C383.869 240.505 383.708 239.953 383.961 239.493C384.214 239.056 384.766 238.895 385.226 239.125C395.137 244.668 410.982 243.679 420.526 236.917C424.459 234.134 428.897 229.258 427.632 221.829C427.54 221.323 427.885 220.84 428.391 220.771C428.897 220.702 429.38 221.024 429.449 221.53C430.553 228.062 427.77 234.065 421.584 238.435C415.812 242.529 408.108 244.622 400.588 244.622Z" fill="#000200"/>
<path d="M124.99 343.476C124.829 343.476 124.668 343.43 124.507 343.338C110.041 334.713 100.958 322.822 97.485 307.941C92.8626 288.23 99.5547 268.335 107.328 256.283C108.524 254.42 109.513 252.166 110.478 250.004C112.249 245.979 113.928 242.184 116.849 240.574C117.286 240.321 117.86 240.482 118.113 240.942C118.366 241.379 118.182 241.954 117.745 242.184C115.354 243.495 113.813 247.014 112.18 250.74C111.191 252.994 110.179 255.317 108.892 257.295C101.326 269.025 94.8173 288.391 99.3018 307.527C102.659 321.902 111.467 333.402 125.473 341.751C125.909 342.004 126.047 342.579 125.794 343.016C125.611 343.315 125.312 343.476 124.99 343.476Z" fill="#000200"/>
<path d="M122.322 305.135C121.977 305.135 121.678 304.951 121.494 304.629C118.642 299.178 119.838 295.061 121.908 293.037C123.978 291.013 127.082 290.668 129.796 292.163C134.602 294.785 137.063 294.417 137.569 293.543C138.259 292.301 136.465 288.207 128.991 283.998C125.795 282.181 122.851 281.813 120.229 282.871C116.366 284.435 113.192 289.104 111.053 296.372C110.915 296.855 110.386 297.131 109.903 296.993C109.421 296.855 109.145 296.326 109.283 295.843C111.582 288 115.124 282.917 119.539 281.146C122.713 279.858 126.185 280.272 129.888 282.365C137.868 286.896 140.605 291.864 139.179 294.417C138.167 296.257 134.924 297.062 128.922 293.773C126.921 292.669 124.668 292.899 123.196 294.348C121.609 295.912 120.758 299.201 123.127 303.778C123.357 304.238 123.196 304.79 122.736 305.02C122.598 305.089 122.46 305.135 122.322 305.135Z" fill="#000200"/>
<path d="M106.385 289.15C106.293 289.15 106.201 289.127 106.109 289.104C105.626 288.943 105.35 288.437 105.488 287.954C107.558 281.238 111.237 276.408 116.136 273.97C120.436 271.831 125.519 271.67 130.463 273.487C138.167 276.316 142.146 278.984 142.582 281.675C142.72 282.549 142.559 283.837 140.996 285.125C138.259 287.356 134.235 287.264 134.051 287.241C133.545 287.218 133.131 286.804 133.154 286.298C133.177 285.792 133.591 285.447 134.097 285.401C134.12 285.401 137.638 285.47 139.823 283.699C140.904 282.825 140.789 282.204 140.743 281.997C140.605 281.1 139.225 278.685 129.796 275.235C125.335 273.602 120.758 273.74 116.918 275.649C112.479 277.857 109.122 282.296 107.213 288.529C107.144 288.897 106.776 289.15 106.385 289.15Z" fill="#000200"/>
<path d="M103.556 282.319C103.418 282.319 103.28 282.296 103.165 282.227C102.705 282.02 102.498 281.468 102.728 281.008C111.72 261.872 118.757 262.953 125.588 263.988C132.05 264.977 141.64 268.082 141.893 272.682C142.077 276.27 138.88 277.88 137.178 278.225C136.672 278.317 136.189 277.995 136.097 277.512C135.982 277.006 136.304 276.523 136.81 276.431C136.948 276.408 140.214 275.672 140.053 272.797C139.915 269.945 132.349 266.909 125.381 265.851C118.895 264.862 112.824 263.942 104.407 281.813C104.223 282.135 103.901 282.319 103.556 282.319Z" fill="#000200"/>
<path d="M101.923 269.83C101.785 269.83 101.647 269.807 101.532 269.738C101.073 269.531 100.866 268.979 101.096 268.519C109.191 251.292 117.125 252.833 123.495 254.075C124.231 254.213 124.944 254.351 125.634 254.466C132.027 255.432 141.64 258.56 141.87 263.16C142.053 266.748 138.857 268.358 137.155 268.703C136.649 268.795 136.166 268.496 136.074 267.99C135.959 267.484 136.281 267.001 136.787 266.909C136.925 266.886 140.191 266.15 140.03 263.275C139.892 260.423 132.326 257.387 125.358 256.329C124.645 256.214 123.909 256.076 123.15 255.938C117.102 254.765 110.271 253.408 102.774 269.347C102.613 269.623 102.268 269.83 101.923 269.83Z" fill="#000200"/>
</svg>
